<svg width="35" height="60" viewBox="0 0 35 60" fill="none" xmlns="http://www.w3.org/2000/svg">
<path d="M30.467 25.6351C30.467 24.8965 30.467 24.2014 30.467 23.4628C30.467 21.8119 30.467 20.161 30.467 18.5101C30.467 17.9453 30.467 17.424 30.467 16.8592C30.467 15.2517 30.467 13.6008 30.2491 12.0368C29.4645 6.4324 24.9315 1.78379 18.9601 0.393552C12.9888 -0.953241 6.7995 1.21901 3.2254 5.9545C1.3076 8.43086 0.435864 11.2113 0.523037 14.1222C0.566624 15.3386 1.56912 16.3813 2.78954 16.4682C4.14072 16.5551 5.14321 15.7731 5.44832 14.4263C5.53549 14.0787 5.57908 13.7311 5.62266 13.3401C5.8406 10.9072 7.23537 8.60464 9.41469 6.99718C11.2017 5.65039 13.4247 4.95527 15.5604 4.95527C15.9963 4.95527 16.4757 4.99872 16.9116 5.04216C21.5753 5.69383 25.1494 9.4301 25.3674 13.9049C25.5853 18.1191 22.3163 22.116 17.8269 23.1153C17.1295 23.289 16.3885 23.4194 15.6912 23.5063C14.9502 23.6366 14.2092 23.7669 13.5118 23.9407C5.53549 25.8088 0 32.4125 0 40.0153C0 44.0123 0 48.0092 0 52.0061C0 56.5679 3.70486 60 8.54296 60C12.9888 60 17.4346 60 21.8804 60C26.7621 60 30.467 56.5679 30.467 52.0061C30.467 47.4879 30.467 43.013 30.467 38.4948V25.6351ZM27.1108 56.9589C25.7161 58.2622 23.8418 58.9573 21.7933 58.9573C21.7497 58.9573 21.7061 58.9573 21.6625 58.9573C18.873 58.9139 15.9963 58.9139 13.2503 58.9139C11.6812 58.9139 10.1121 58.9139 8.49938 58.9139C4.88169 58.9139 1.9614 56.6982 1.26401 53.4398C1.17684 53.0488 1.13325 52.6578 1.13325 52.2668C1.13325 51.0503 1.13325 49.7904 1.13325 48.574C1.13325 45.5763 1.08966 42.4482 1.17684 39.3637C1.35118 32.369 6.45081 26.5474 13.8605 24.8965C14.6451 24.7227 15.4296 24.5924 16.1706 24.5055C16.9988 24.3752 17.7397 24.2883 18.4807 24.1145C23.1445 22.9849 26.5442 18.8142 26.5006 14.209C26.5006 9.60388 23.0573 5.43316 18.3935 4.3036C15.3861 3.56503 12.2914 3.99948 9.7198 5.52005C7.10461 7.04063 5.31756 9.4301 4.70735 12.254C4.66376 12.4278 4.66376 12.645 4.66376 12.9057C4.66376 13.0795 4.66376 13.2098 4.62017 13.3836C4.62017 13.427 4.62017 13.5139 4.62017 13.5574C4.62017 13.818 4.57659 14.1222 4.44583 14.4263C4.31507 14.7304 4.05355 14.9476 3.92279 15.1214C3.8792 15.1648 3.83561 15.2083 3.79203 15.2517L3.05106 15.9903L2.35367 15.2952C2.31009 15.2517 2.2665 15.2083 2.22291 15.1648C2.00498 14.9911 1.65629 14.6869 1.56912 14.2525C1.48194 13.7746 1.48194 13.2098 1.56912 12.645C2.39726 7.47508 5.23039 3.86915 9.98132 2.00102C14.2528 0.306663 19.1345 0.741111 23.0137 3.13058C26.8929 5.52005 29.2466 9.56043 29.2902 13.9484C29.3337 18.3363 29.2902 22.7677 29.2902 27.0253C29.2902 28.6762 29.2902 30.3706 29.2902 32.0215V32.8469C29.2902 34.715 29.2902 36.5832 29.2902 38.4079C29.2902 42.7958 29.2466 47.3141 29.3337 51.7889C29.3337 53.7439 28.5492 55.6121 27.1108 56.9589Z" fill="#34B86E"/>
<path d="M23.0137 43.9254C24.5392 42.1876 24.0598 40.4498 23.3624 39.2768C22.3599 37.5824 20.9215 36.757 18.9601 36.8438C17.8705 36.8873 16.8244 37.3217 15.8219 38.1906L15.2553 38.6685L14.3836 38.0603C14.2528 37.9734 14.1656 37.8865 14.0349 37.7996C13.1195 37.148 12.1606 36.8438 11.2017 36.8438C10.9402 36.8438 10.7223 36.8439 10.4608 36.8873C8.45578 37.2349 7.19177 38.2341 6.53798 39.9719C5.92776 41.5793 6.32004 43.0999 7.67123 44.5771C8.32502 45.2722 8.89165 45.8804 9.45827 46.3583L10.1992 47.01C11.3325 48.0092 12.5529 49.0953 13.7733 50.0077C14.7758 50.7462 14.9502 50.7462 16.0834 50.0511C18.4371 48.574 20.6164 46.6624 23.0137 43.9254ZM16.127 48.9216C15.7783 49.2257 15.4296 49.3994 15.0374 49.3994C14.6451 49.3994 14.2964 49.2257 13.9477 48.9216C13.3375 48.3568 12.7273 47.792 12.1171 47.2272C10.853 46.0542 9.54545 44.8812 8.28144 43.6213C7.62764 42.9696 7.27895 42.1441 7.32254 41.2752C7.36612 40.3629 7.80199 39.4506 8.54296 38.7554C10.0249 37.4521 12.2478 37.4521 13.7298 38.7554C14.2092 39.1899 14.6887 39.6243 15.1681 40.1022L15.2117 40.1457C15.6476 39.7112 16.0398 39.3202 16.4757 38.9292C18.0012 37.4955 20.2677 37.4521 21.7497 38.7989C22.4907 39.494 22.9265 40.3629 22.9265 41.3187C22.9265 42.231 22.5342 43.1434 21.7933 43.795C20.6164 44.9246 19.3524 46.0107 18.1756 47.0534C17.4782 47.7051 16.8244 48.3133 16.127 48.9216Z" fill="#34B86E"/>
<path d="M34.7385 19.1618H30.3798C30.2491 19.1618 30.1183 19.0314 30.1183 18.9011C30.1183 18.7708 30.2491 18.6404 30.3798 18.6404H34.7385C34.8692 18.6404 35 18.7708 35 18.9011C35 19.0314 34.8692 19.1618 34.7385 19.1618Z" fill="#34B86E"/>
<path d="M34.7385 21.4209H30.3798C30.2491 21.4209 30.1183 21.2906 30.1183 21.1603C30.1183 21.0299 30.2491 20.8996 30.3798 20.8996H34.7385C34.8692 20.8996 35 21.0299 35 21.1603C35 21.2906 34.8692 21.4209 34.7385 21.4209Z" fill="#34B86E"/>
<path d="M34.7385 23.68H30.3798C30.2491 23.68 30.1183 23.5497 30.1183 23.4194C30.1183 23.289 30.2491 23.1587 30.3798 23.1587H34.7385C34.8692 23.1587 35 23.289 35 23.4194C35 23.5497 34.8692 23.68 34.7385 23.68Z" fill="#34B86E"/>
<path d="M34.7385 25.9392H30.3798C30.2491 25.9392 30.1183 25.8088 30.1183 25.6785C30.1183 25.5482 30.2491 25.4178 30.3798 25.4178H34.7385C34.8692 25.4178 35 25.5482 35 25.6785C35 25.8523 34.8692 25.9392 34.7385 25.9392Z" fill="#34B86E"/>
<path d="M34.7385 28.1983H30.3798C30.2491 28.1983 30.1183 28.068 30.1183 27.9376C30.1183 27.8073 30.2491 27.677 30.3798 27.677H34.7385C34.8692 27.677 35 27.8073 35 27.9376C35 28.1114 34.8692 28.1983 34.7385 28.1983Z" fill="#34B86E"/>
<path d="M34.7385 30.4574H30.3798C30.2491 30.4574 30.1183 30.3271 30.1183 30.1968C30.1183 30.0664 30.2491 29.9361 30.3798 29.9361H34.7385C34.8692 29.9361 35 30.0664 35 30.1968C35 30.3705 34.8692 30.4574 34.7385 30.4574Z" fill="#34B86E"/>
<path d="M34.7385 32.76H30.3798C30.2491 32.76 30.1183 32.6297 30.1183 32.4994C30.1183 32.369 30.2491 32.2387 30.3798 32.2387H34.7385C34.8692 32.2387 35 32.369 35 32.4994C35 32.6297 34.8692 32.76 34.7385 32.76Z" fill="#34B86E"/>
<path d="M34.7385 35.0192H30.3798C30.2491 35.0192 30.1183 34.8888 30.1183 34.7585C30.1183 34.6282 30.2491 34.4978 30.3798 34.4978H34.7385C34.8692 34.4978 35 34.6282 35 34.7585C35 34.8888 34.8692 35.0192 34.7385 35.0192Z" fill="#34B86E"/>
<path d="M34.7385 37.2783H30.3798C30.2491 37.2783 30.1183 37.148 30.1183 37.0177C30.1183 36.8873 30.2491 36.757 30.3798 36.757H34.7385C34.8692 36.757 35 36.8873 35 37.0177C35 37.148 34.8692 37.2783 34.7385 37.2783Z" fill="#34B86E"/>
<path d="M34.7385 39.5374H30.3798C30.2491 39.5374 30.1183 39.4071 30.1183 39.2768C30.1183 39.1464 30.2491 39.0161 30.3798 39.0161H34.7385C34.8692 39.0161 35 39.1464 35 39.2768C35 39.4071 34.8692 39.5374 34.7385 39.5374Z" fill="#34B86E"/>
<path d="M34.7385 41.7966H30.3798C30.2491 41.7966 30.1183 41.6662 30.1183 41.5359C30.1183 41.4056 30.2491 41.2752 30.3798 41.2752H34.7385C34.8692 41.2752 35 41.4056 35 41.5359C35 41.7097 34.8692 41.7966 34.7385 41.7966Z" fill="#34B86E"/>
<path d="M34.7385 44.0557H30.3798C30.2491 44.0557 30.1183 43.9254 30.1183 43.795C30.1183 43.6647 30.2491 43.5344 30.3798 43.5344H34.7385C34.8692 43.5344 35 43.6647 35 43.795C35 43.9688 34.8692 44.0557 34.7385 44.0557Z" fill="#34B86E"/>
<path d="M20.4857 50.138H16.127C15.9963 50.138 15.8655 50.0077 15.8655 49.8773C15.8655 49.747 15.9963 49.6167 16.127 49.6167H20.4857C20.6164 49.6167 20.7472 49.747 20.7472 49.8773C20.7472 50.0077 20.66 50.138 20.4857 50.138Z" fill="#34B86E"/>
<path d="M5.70984 55.0473H1.35118C1.22042 55.0473 1.08966 54.9169 1.08966 54.7866C1.08966 54.6563 1.22042 54.5259 1.35118 54.5259H5.70984C5.84059 54.5259 5.97135 54.6563 5.97135 54.7866C5.97135 54.9169 5.88418 55.0473 5.70984 55.0473Z" fill="#34B86E"/>
<path d="M5.05604 53.0488H0.697383C0.566623 53.0488 0.435865 52.9185 0.435865 52.7881C0.435865 52.6578 0.566623 52.5275 0.697383 52.5275H5.05604C5.1868 52.5275 5.31756 52.6578 5.31756 52.7881C5.31756 52.9619 5.1868 53.0488 5.05604 53.0488Z" fill="#34B86E"/>
<path d="M5.05604 51.0938H0.697383C0.566623 51.0938 0.435865 50.9634 0.435865 50.8331C0.435865 50.7028 0.566623 50.5724 0.697383 50.5724H5.05604C5.1868 50.5724 5.31756 50.7028 5.31756 50.8331C5.31756 50.9634 5.1868 51.0938 5.05604 51.0938Z" fill="#34B86E"/>
<path d="M5.05604 49.0953H0.697383C0.566623 49.0953 0.435865 48.965 0.435865 48.8347C0.435865 48.7043 0.566623 48.574 0.697383 48.574H5.05604C5.1868 48.574 5.31756 48.7043 5.31756 48.8347C5.31756 48.965 5.1868 49.0953 5.05604 49.0953Z" fill="#34B86E"/>
<path d="M5.05604 47.0969H0.697383C0.566623 47.0969 0.435865 46.9665 0.435865 46.8362C0.435865 46.7059 0.566623 46.5755 0.697383 46.5755H5.05604C5.1868 46.5755 5.31756 46.7059 5.31756 46.8362C5.31756 47.01 5.1868 47.0969 5.05604 47.0969Z" fill="#34B86E"/>
<path d="M22.9265 47.7485H18.5679C18.4371 47.7485 18.3064 47.6182 18.3064 47.4879C18.3064 47.3575 18.4371 47.2272 18.5679 47.2272H22.9265C23.0573 47.2272 23.188 47.3575 23.188 47.4879C23.188 47.6182 23.0573 47.7485 22.9265 47.7485Z" fill="#34B86E"/>
<path d="M25.3674 45.3591H21.0087C20.8779 45.3591 20.7472 45.2287 20.7472 45.0984C20.7472 44.9681 20.8779 44.8377 21.0087 44.8377H25.3674C25.4981 44.8377 25.6289 44.9681 25.6289 45.0984C25.6289 45.2722 25.4981 45.3591 25.3674 45.3591Z" fill="#34B86E"/>
<path d="M27.7646 43.013H23.406C23.2752 43.013 23.1445 42.8827 23.1445 42.7524C23.1445 42.622 23.2752 42.4917 23.406 42.4917H27.7646C27.8954 42.4917 28.0261 42.622 28.0261 42.7524C28.0261 42.8827 27.939 43.013 27.7646 43.013Z" fill="#34B86E"/>
</svg>
