<svg width="62" height="54" viewBox="0 0 62 54" fill="none" xmlns="http://www.w3.org/2000/svg">
<path d="M62 17.0703C62 15.4469 61.3749 13.914 60.24 12.7538C60.0078 12.5163 59.7594 12.2999 59.4974 12.1055C59.7594 11.911 60.0078 11.6946 60.24 11.4571C61.3749 10.2969 62 8.76401 62 7.14062C62 3.73523 59.2295 0.964844 55.8242 0.964844C53.7918 0.964844 51.9854 1.95164 50.8594 3.47148C49.7333 1.95164 47.927 0.964844 45.8945 0.964844C43.8621 0.964844 42.0557 1.95164 40.9297 3.47148C39.8036 1.95164 37.9973 0.964844 35.9648 0.964844C33.9324 0.964844 32.126 1.95164 31 3.47148C29.8739 1.95164 28.0676 0.964844 26.0352 0.964844C24.0027 0.964844 22.1964 1.95164 21.0703 3.47148C19.9443 1.95164 18.1379 0.964844 16.1055 0.964844C14.073 0.964844 12.2667 1.95164 11.1406 3.47148C10.0146 1.95164 8.20822 0.964844 6.17578 0.964844C2.7705 0.964844 0 3.73523 0 7.14062C0 8.76401 0.625086 10.2969 1.75998 11.4571C1.99223 11.6946 2.2406 11.911 2.50264 12.1055C2.2406 12.2999 1.99223 12.5163 1.75998 12.7538C0.625086 13.914 0 15.4469 0 17.0703C0 18.6937 0.625086 20.2266 1.75998 21.3868C1.99223 21.6243 2.2406 21.8407 2.50264 22.0352C2.2406 22.2296 1.99223 22.446 1.75998 22.6835C0.625086 23.8437 0 25.3766 0 27C0 28.6234 0.625086 30.1563 1.75998 31.3165C1.99223 31.554 2.2406 31.7704 2.50264 31.9648C2.2406 32.1593 1.99223 32.3757 1.75998 32.6132C0.625086 33.7734 0 35.3063 0 36.9297C0 38.5531 0.625086 40.086 1.75998 41.2462C1.99223 41.4837 2.2406 41.7001 2.50264 41.8945C2.2406 42.089 1.99223 42.3054 1.75998 42.5429C0.625086 43.7031 0 45.236 0 46.8594C0 50.2648 2.7705 53.0352 6.17578 53.0352C8.20822 53.0352 10.0146 52.0484 11.1406 50.5285C12.2667 52.0484 14.073 53.0352 16.1055 53.0352C18.1379 53.0352 19.9443 52.0484 21.0703 50.5285C22.1964 52.0484 24.0027 53.0352 26.0352 53.0352C28.0676 53.0352 29.8739 52.0484 31 50.5285C32.126 52.0484 33.9324 53.0352 35.9648 53.0352C37.9973 53.0352 39.8036 52.0484 40.9297 50.5285C42.0557 52.0484 43.8621 53.0352 45.8945 53.0352C47.927 53.0352 49.7333 52.0484 50.8594 50.5285C51.9854 52.0484 53.7918 53.0352 55.8242 53.0352C59.2295 53.0352 62 50.2648 62 46.8594C62 45.236 61.3749 43.7031 60.24 42.5429C60.0078 42.3054 59.7594 42.089 59.4974 41.8945C59.7594 41.7001 60.0078 41.4837 60.24 41.2462C61.3749 40.086 62 38.5531 62 36.9297C62 35.3063 61.3749 33.7734 60.24 32.6132C60.0078 32.3757 59.7594 32.1593 59.4974 31.9648C59.7594 31.7704 60.0078 31.554 60.24 31.3165C61.3749 30.1563 62 28.6234 62 27C62 25.3766 61.3749 23.8437 60.24 22.6835C60.0078 22.446 59.7594 22.2296 59.4974 22.0352C59.7594 21.8407 60.0078 21.6243 60.24 21.3868C61.3749 20.2266 62 18.6937 62 17.0703ZM55.8242 3.38672C57.8942 3.38672 59.5781 5.07077 59.5781 7.14062C59.5781 8.72526 58.5669 10.1021 57.1562 10.6454V7.14062C57.1562 6.47182 56.614 5.92969 55.9453 5.92969H52.2719C52.7769 4.45234 54.1779 3.38672 55.8242 3.38672ZM7.26562 45.6484V8.35156H54.7344V45.6484H7.26562ZM45.8945 3.38672C47.5408 3.38672 48.9419 4.45234 49.4468 5.92969H42.3421C42.8472 4.45234 44.2483 3.38672 45.8945 3.38672ZM35.9648 3.38672C37.6111 3.38672 39.0122 4.45234 39.5171 5.92969H32.4124C32.9175 4.45234 34.3186 3.38672 35.9648 3.38672ZM26.0352 3.38672C27.6814 3.38672 29.0825 4.45234 29.5874 5.92969H22.4827C22.9878 4.45234 24.3889 3.38672 26.0352 3.38672ZM16.1055 3.38672C17.7517 3.38672 19.1528 4.45234 19.6578 5.92969H12.5531C13.0581 4.45234 14.4592 3.38672 16.1055 3.38672ZM2.42188 7.14062C2.42188 5.07077 4.1058 3.38672 6.17578 3.38672C7.82205 3.38672 9.22311 4.45234 9.72807 5.92969H6.05469C5.38601 5.92969 4.84375 6.47182 4.84375 7.14062V10.6454C3.43313 10.1021 2.42188 8.72526 2.42188 7.14062ZM2.42188 17.0703C2.42188 15.4857 3.43313 14.1088 4.84375 13.5655V20.5751C3.43313 20.0318 2.42188 18.6549 2.42188 17.0703ZM2.42188 27C2.42188 25.4154 3.43313 24.0385 4.84375 23.4952V30.5048C3.43313 29.9615 2.42188 28.5846 2.42188 27ZM2.42188 36.9297C2.42188 35.3451 3.43313 33.9682 4.84375 33.4249V40.4345C3.43313 39.8912 2.42188 38.5143 2.42188 36.9297ZM6.17578 50.6133C4.1058 50.6133 2.42188 48.9292 2.42188 46.8594C2.42188 45.2747 3.43313 43.8979 4.84375 43.3546V46.8594C4.84375 47.5282 5.38601 48.0703 6.05469 48.0703H9.72807C9.22311 49.5477 7.82205 50.6133 6.17578 50.6133ZM16.1055 50.6133C14.4592 50.6133 13.0581 49.5477 12.5532 48.0703H19.6579C19.1528 49.5477 17.7517 50.6133 16.1055 50.6133ZM26.0352 50.6133C24.3889 50.6133 22.9878 49.5477 22.4829 48.0703H29.5876C29.0825 49.5477 27.6814 50.6133 26.0352 50.6133ZM35.9648 50.6133C34.3186 50.6133 32.9175 49.5477 32.4126 48.0703H39.5173C39.0122 49.5477 37.6111 50.6133 35.9648 50.6133ZM45.8945 50.6133C44.2483 50.6133 42.8472 49.5477 42.3422 48.0703H49.4469C48.9419 49.5477 47.5408 50.6133 45.8945 50.6133ZM59.5781 46.8594C59.5781 48.9292 57.8942 50.6133 55.8242 50.6133C54.1779 50.6133 52.7769 49.5477 52.2719 48.0703H55.9453C56.614 48.0703 57.1562 47.5282 57.1562 46.8594V43.3546C58.5669 43.8979 59.5781 45.2747 59.5781 46.8594ZM59.5781 36.9297C59.5781 38.5143 58.5669 39.8912 57.1562 40.4345V33.4249C58.5669 33.9682 59.5781 35.3451 59.5781 36.9297ZM59.5781 27C59.5781 28.5846 58.5669 29.9615 57.1562 30.5048V23.4952C58.5669 24.0385 59.5781 25.4154 59.5781 27ZM57.1562 20.5751V13.5655C58.5669 14.1088 59.5781 15.4857 59.5781 17.0703C59.5781 18.6549 58.5669 20.0318 57.1562 20.5751Z" fill="#34B86E"/>
<path d="M21.1622 29.0647C21.8309 29.0647 22.3732 28.5226 22.3732 27.8538C22.3732 27.185 21.8309 26.6429 21.1622 26.6429H16.1862C15.5176 26.6429 14.9753 27.185 14.9753 27.8538C14.9753 28.5226 15.5176 29.0647 16.1862 29.0647H21.1622Z" fill="#34B86E"/>
<path d="M16.1862 23.2522H33.0586C33.7273 23.2522 34.2695 22.7101 34.2695 22.0413C34.2695 21.3725 33.7273 20.8304 33.0586 20.8304H16.1862C15.5176 20.8304 14.9753 21.3725 14.9753 22.0413C14.9753 22.7101 15.5176 23.2522 16.1862 23.2522Z" fill="#34B86E"/>
<path d="M21.3528 16.471H40.6472C41.3159 16.471 41.8581 15.9289 41.8581 15.2601C41.8581 14.5913 41.3159 14.0491 40.6472 14.0491H21.3528C20.6841 14.0491 20.1419 14.5913 20.1419 15.2601C20.1419 15.9289 20.6841 16.471 21.3528 16.471Z" fill="#34B86E"/>
<path d="M45.8138 26.6429H32.0521C31.3834 26.6429 30.8411 27.185 30.8411 27.8538C30.8411 28.5226 31.3834 29.0647 32.0521 29.0647H45.8139C46.4826 29.0647 47.0248 28.5226 47.0248 27.8538C47.0248 27.185 46.4824 26.6429 45.8138 26.6429Z" fill="#34B86E"/>
<path d="M45.8138 20.8304H39.2747C38.606 20.8304 38.0638 21.3725 38.0638 22.0413C38.0638 22.7101 38.606 23.2522 39.2747 23.2522H45.8138C46.4824 23.2522 47.0247 22.7101 47.0247 22.0413C47.0247 21.3725 46.4824 20.8304 45.8138 20.8304Z" fill="#34B86E"/>
<path d="M43.2612 37.0138C41.8722 35.6247 39.6117 35.6247 38.2225 37.0138L37.3091 37.9236C36.6654 37.2798 35.8095 36.9253 34.8992 36.9253C33.9888 36.9254 33.1325 37.2801 32.4894 37.9231C32.1388 38.2733 31.6733 38.4662 31.1789 38.4662C30.6609 38.4662 30.1802 38.258 29.8254 37.8801C29.4711 37.5025 29.294 37.0079 29.3271 36.4873C29.3851 35.575 30.115 34.8329 31.0252 34.7611C31.5804 34.717 32.1006 34.9081 32.4909 35.2985C32.9639 35.7714 33.7304 35.7714 34.2035 35.2985C34.6764 34.8256 34.6764 34.0589 34.2035 33.5859C33.3171 32.6993 32.0887 32.2479 30.8349 32.3466C28.7312 32.5126 27.0439 34.2267 26.9103 36.3339C26.8344 37.5292 27.2426 38.667 28.0596 39.5374C28.8652 40.3957 30.0022 40.8879 31.179 40.8879C32.3194 40.8879 33.3926 40.4437 34.2015 39.6362C34.3878 39.4497 34.6357 39.347 34.8992 39.347C35.1627 39.347 35.4105 39.4496 35.5968 39.636C36.0547 40.0938 36.6637 40.3461 37.3112 40.3461C37.9589 40.3461 38.5676 40.0938 39.0255 39.636L39.9351 38.7262C40.3803 38.2813 41.1039 38.2814 41.5488 38.7262L42.8385 40.0159C43.3115 40.4889 44.078 40.4889 44.5511 40.0159C45.024 39.5431 45.024 38.7763 44.5511 38.3034L43.2612 37.0138Z" fill="#34B86E"/>
<path d="M20.4206 32.3321C18.053 32.3321 16.1268 34.2583 16.1268 36.6259C16.1268 38.9935 18.053 40.9196 20.4206 40.9196C22.7883 40.9196 24.7144 38.9934 24.7144 36.6259C24.7144 34.2584 22.7883 32.3321 20.4206 32.3321ZM20.4206 38.4978C19.3884 38.4978 18.5487 37.658 18.5487 36.6259C18.5487 35.5938 19.3884 34.754 20.4206 34.754C21.4527 34.754 22.2925 35.5938 22.2925 36.6259C22.2925 37.6581 21.4527 38.4978 20.4206 38.4978Z" fill="#34B86E"/>
<path d="M27.8225 27.8537C27.8225 27.5352 27.6929 27.2228 27.4677 26.9975C27.2424 26.7723 26.93 26.6427 26.6115 26.6427C26.2931 26.6427 25.9807 26.7723 25.7554 26.9975C25.5303 27.2228 25.4006 27.5352 25.4006 27.8537C25.4006 28.1733 25.5302 28.4846 25.7554 28.7098C25.9807 28.935 26.2931 29.0646 26.6115 29.0646C26.93 29.0646 27.2424 28.935 27.4677 28.7098C27.6928 28.4846 27.8225 28.1721 27.8225 27.8537Z" fill="#34B86E"/>
</svg>
