<svg width="62" height="62" viewBox="0 0 62 62" fill="none" xmlns="http://www.w3.org/2000/svg">
<path d="M61.9124 25.6802C61.6556 24.4549 60.8521 23.394 59.7081 22.7693L57.1718 21.3844C56.8777 21.2239 56.5283 21.1804 56.2002 21.2635C55.8721 21.3466 55.5924 21.5495 55.4227 21.8276L55.2597 22.0946L49.4832 18.9406C49.4826 18.9403 49.0384 18.6977 49.0384 18.6977C49.8374 15.8099 49.8613 12.7754 49.095 9.86078C48.7112 8.40099 48.1364 7.00454 47.3885 5.69842L51.0759 4.76406C51.7589 4.59102 52.1643 3.92694 51.9813 3.28091C51.7982 2.63499 51.0965 2.25161 50.413 2.42465L45.9426 3.55749C45.278 2.71395 44.532 1.92308 43.7098 1.19531C42.7967 0.387009 41.6069 -0.036093 40.3554 0.00241484C39.1054 0.041407 37.9463 0.538497 37.0916 1.40202C36.2369 2.26554 35.7889 3.39219 35.8301 4.57431C35.848 5.08908 35.958 5.5875 36.1518 6.05299C35.5767 6.28657 35.2543 6.88877 35.421 7.47717C35.5743 8.01822 36.0916 8.37508 36.657 8.37508C36.7666 8.37508 36.8783 8.36164 36.9892 8.33354L37.7993 8.12829C39.352 9.72007 40.2252 11.7747 40.2877 13.9197L30.3445 8.49096C29.7323 8.15662 28.949 8.35498 28.5953 8.93417C28.2417 9.51336 28.4515 10.254 29.064 10.5883L30.5309 11.3892C30.2934 11.6056 30.0859 11.8545 29.9165 12.1321L25.3807 19.5618C25.2094 19.8425 25.087 20.1373 25.009 20.4372L22.9884 19.3339C21.9708 18.7785 20.7854 18.6309 19.6505 18.9183C18.5155 19.2059 17.5669 19.8944 16.9794 20.8566C15.9382 22.5622 16.3245 24.6819 17.7838 25.9734L16.15 28.6498C14.3428 27.9743 12.2311 28.6345 11.231 30.2727L2.03294 45.3387C1.03289 46.9767 1.484 49.0365 3.00609 50.1788L0.811244 53.774C0.719178 53.9247 0.662581 54.0923 0.645423 54.2657L0.00570156 60.6755C-0.0414196 61.147 0.206479 61.6011 0.640301 61.838C0.83903 61.9465 1.06004 62.0002 1.28041 62.0002C1.54111 62.0002 1.80092 61.925 2.02205 61.7765L7.57198 58.0477C7.72205 57.9469 7.84728 57.8167 7.93935 57.666L10.1347 54.07C10.6081 54.247 11.102 54.3335 11.5918 54.3335C12.9715 54.3335 14.3153 53.6569 15.0532 52.448L24.2511 37.382C25.2511 35.7438 24.8 33.6842 23.2778 32.5419L24.8541 29.96L26.2002 30.6951C27.3812 31.3399 28.6716 31.6461 29.9462 31.6461C32.1381 31.6461 34.282 30.7396 35.7342 29.0901L47.6996 35.6232C47.703 35.9727 47.7525 36.3241 47.8507 36.6706C48.1551 37.7452 48.8838 38.6432 49.9026 39.1994C50.5795 39.569 51.3398 39.7574 52.1046 39.7574C52.5839 39.7574 53.0651 39.6834 53.5286 39.5336C54.7318 39.1448 55.6983 38.2833 56.1802 37.1704C57.4185 34.3098 59.0568 31.6171 61.0495 29.1668C61.8548 28.1762 62.1693 26.9056 61.9124 25.6802ZM48.4558 33.2393L45.6298 31.6963C45.8673 31.4799 46.0747 31.231 46.2441 30.9534L50.7801 23.5237C50.9514 23.243 51.0738 22.9484 51.1518 22.6484L53.9789 24.192L48.4558 33.2393ZM44.7628 19.3037C44.93 19.3037 45.0993 19.3439 45.2543 19.4284L48.2018 21.0377C48.6727 21.2954 48.8345 21.8672 48.5624 22.3128L44.0265 29.7426C43.8946 29.9586 43.6818 30.1131 43.427 30.1776C43.1722 30.2422 42.9061 30.209 42.6777 30.0844L39.7314 28.4757C39.503 28.3509 39.3396 28.1497 39.2714 27.9087C39.2031 27.6679 39.2382 27.4162 39.3701 27.2001L43.9059 19.7704C44.0886 19.4711 44.4211 19.3037 44.7628 19.3037ZM38.961 3.05725C39.3482 2.66611 39.8733 2.44088 40.4397 2.4232C41.0049 2.40455 41.5457 2.59745 41.9594 2.96364C46.1301 6.65555 47.9158 12.2001 46.7265 17.4357L42.7948 15.2889C43.1606 11.7791 41.7998 8.31841 39.06 5.8929C38.6462 5.52671 38.4081 5.03011 38.3894 4.49451C38.3707 3.95891 38.5736 3.44838 38.961 3.05725ZM27.5984 20.7728L32.1342 13.3431C32.3169 13.0438 32.6494 12.8764 32.9909 12.8764C33.1584 12.8764 33.3279 12.9167 33.483 13.0013L36.4294 14.6101C36.9007 14.8676 37.0628 15.4398 36.7906 15.8857L32.2547 23.3154C32.1228 23.5314 31.91 23.6859 31.6551 23.7505C31.4003 23.8153 31.1342 23.7818 30.9058 23.6571L27.9597 22.0485C27.7313 21.9238 27.5679 21.7224 27.4996 21.4814C27.4314 21.2404 27.4665 20.9888 27.5984 20.7728ZM34.4727 24.5262L39.0086 17.0965C39.1799 16.8158 39.3023 16.5212 39.3803 16.2212L42.3038 17.8175C42.068 18.0313 41.8594 18.279 41.6881 18.5597L37.1523 25.9894C36.9828 26.267 36.8586 26.5612 36.7792 26.864L33.8582 25.2692C34.0958 25.0526 34.3031 24.8037 34.4727 24.5262ZM16.0902 45.9057L7.50553 41.2185L10.1939 36.8149L18.7785 41.5022L16.0902 45.9057ZM5.86115 56.2261L2.81799 58.2707L3.16871 54.756L5.20209 51.4254L7.89453 52.8954L5.86115 56.2261ZM12.8355 51.2368C12.4417 51.8818 11.5664 52.1037 10.8843 51.7312L4.77365 48.3949C4.09154 48.0224 3.85696 47.1946 4.25083 46.5495L6.22506 43.3157L14.8097 48.0029L12.8355 51.2368ZM22.0332 36.1709L20.059 39.4047L11.4743 34.7174L13.4486 31.4836C13.7128 31.0507 14.1939 30.8085 14.6879 30.8085C14.9301 30.8085 15.1754 30.8668 15.3997 30.9892L21.5104 34.3256C22.1924 34.6981 22.4269 35.5259 22.0332 36.1709ZM21.0817 31.295L18.3892 29.8249L19.9437 27.2787L22.6362 28.7487L21.0817 31.295ZM27.4807 28.5975L19.8698 24.4419C18.9922 23.9626 18.6904 22.8976 19.1971 22.0676C19.4426 21.6656 19.8389 21.378 20.3131 21.2578C20.7876 21.1374 21.2827 21.1993 21.7078 21.4314L33.4657 27.8513C31.9185 29.3151 29.464 29.6803 27.4807 28.5975ZM59.0195 27.6899C56.8875 30.3113 55.1348 33.1922 53.81 36.2526C53.6054 36.7251 53.2114 37.0764 52.7004 37.2415C52.1894 37.4067 51.6505 37.3571 51.1829 37.1017C50.7565 36.8689 50.4516 36.493 50.3242 36.0434C50.1968 35.5937 50.2622 35.1241 50.5084 34.7208L57.0001 24.0872L58.4274 24.8666C58.9396 25.1463 59.2852 25.6026 59.4003 26.1513C59.5154 26.7001 59.3802 27.2465 59.0195 27.6899Z" fill="#34B86E"/>
</svg>
