<svg width="62" height="50" viewBox="0 0 62 50" fill="none" xmlns="http://www.w3.org/2000/svg">
<path d="M61.6453 47.6844L59.7217 45.7608V42.253C59.7217 41.9318 59.5941 41.6239 59.3671 41.3967L55.7858 37.8155V34.8127C55.7858 34.4916 55.6582 34.1837 55.4311 33.9565L53.9079 32.4332C54.5876 32.2229 55.2275 31.8502 55.7646 31.3131C56.62 30.4576 57.0912 29.3202 57.0912 28.1103C57.0912 26.9005 56.62 25.763 55.7646 24.9076L51.6096 20.7524C51.1367 20.2795 50.3702 20.2795 49.8969 20.7524C49.4241 21.2253 49.4241 21.9921 49.8969 22.4649L54.052 26.6201C54.45 27.0182 54.6693 27.5475 54.6693 28.1104C54.6693 28.6734 54.45 29.2027 54.0521 29.6007C53.2423 30.4105 51.9326 30.4207 51.1082 29.6338L37.1042 15.6294C38.695 15.4058 40.3334 15.5441 41.8663 16.0454C42.5017 16.2533 43.1857 15.9065 43.3937 15.2709C43.6016 14.6351 43.2548 13.9514 42.6192 13.7435C40.4075 13.0201 38.0177 12.9132 35.7534 13.4167L25.7381 3.40138C25.4648 3.12807 25.0768 3.00189 24.696 3.0611C22.6445 3.37982 20.5429 2.6937 19.0747 1.22556L18.4519 0.602899C17.9792 0.130028 17.2125 0.130149 16.7394 0.602899L12.8514 4.49098C12.3786 4.96385 12.3786 5.73061 12.8514 6.20349L13.4741 6.82615C14.9424 8.29429 15.6286 10.3956 15.3096 12.4472C15.2504 12.829 15.3768 13.2163 15.65 13.4895L20.8527 18.6921L12.072 26.9672C10.3833 28.5587 8.17528 29.4352 5.85488 29.4352H1.21094C0.542258 29.4352 0 29.9775 0 30.6461C0 31.3148 0.542258 31.8571 1.21094 31.8571H5.85476C8.79516 31.8571 11.593 30.7464 13.7329 28.7297L22.5658 20.4055L24.7093 22.549L24.0353 24.6961C23.4372 26.602 24.0561 28.6429 25.6123 29.8954C26.882 30.9171 28.5659 31.228 30.1165 30.727L37.6179 28.3039C38.7682 27.9328 40.0364 28.4353 40.6328 29.5005L40.6766 29.5787C41.0238 30.1986 41.0858 30.9379 40.8466 31.6067C40.6076 32.2752 40.0915 32.8073 39.4305 33.0666C37.3406 33.886 34.8293 34.8701 32.9967 35.5865C31.0728 36.3385 29.5216 37.9028 28.7408 39.8784C27.0083 44.2623 22.7069 47.2024 18.0277 47.2024C18.0186 47.2024 18.0091 47.2024 18 47.2024H1.21094C0.542258 47.2024 0 47.7447 0 48.4134C0 49.0821 0.542258 49.6243 1.21094 49.6243H18.0318C20.8246 49.6243 23.5295 48.7847 25.8559 47.1953C28.1838 45.6047 29.9603 43.3824 30.9932 40.7685C31.4903 39.5107 32.4356 38.5004 33.6113 37.9567L38.2816 42.627C39.1371 43.4824 40.2746 43.9536 41.4844 43.9536C42.6941 43.9536 43.8316 43.4824 44.687 42.6272C44.8493 42.4649 44.9976 42.292 45.1319 42.1101L46.2047 43.1829C46.4318 43.4099 46.7398 43.5375 47.0609 43.5375H50.0637L53.6449 47.1188C53.8721 47.3458 54.18 47.4734 54.5011 47.4734H58.009L59.9326 49.397C60.1691 49.6334 60.4789 49.7517 60.7888 49.7517C61.0987 49.7517 61.4086 49.6334 61.6451 49.397C62.1183 48.924 62.1183 48.1573 61.6453 47.6844ZM44.4819 38.0347L41.2668 34.8196C42.1186 34.2436 42.7749 33.4077 43.1273 32.4217C43.4523 31.5127 43.4969 30.5384 43.2718 29.6191L45.4685 27.4224L50.283 32.2334L44.4819 38.0347ZM35.8442 26.3316L33.5272 27.0801L28.9219 22.4747L34.7215 16.6752L40.1111 22.0648L35.8442 26.3316ZM33.4415 14.53L26.7786 21.193L18.2187 12.6332L24.8816 5.97014L33.4415 14.53ZM15.4158 5.35159L17.6 3.1673C18.8446 4.32242 20.3875 5.08712 22.0274 5.3993L17.6477 9.77902C17.3354 8.13917 16.5708 6.59607 15.4158 5.35159ZM29.3721 28.4223C28.5999 28.6715 27.7623 28.5166 27.1307 28.0084C26.3563 27.3852 26.0484 26.3696 26.346 25.4212L26.8471 23.8251L30.9385 27.9163L29.3721 28.4223ZM39.6701 25.9311L41.8237 23.7775L43.7561 25.7099L42.0758 27.3902C41.4236 26.6767 40.5836 26.1752 39.6701 25.9311ZM41.4845 41.5317C40.9216 41.5317 40.3923 41.3124 39.9942 40.9144L36.066 36.986C36.9875 36.6251 37.9585 36.2447 38.8985 35.8763L43.3757 40.3535C43.2744 40.5591 43.1405 40.7487 42.9747 40.9144C42.5767 41.3126 42.0474 41.5317 41.4845 41.5317ZM46.1945 39.7473L51.9957 33.9461L53.3641 35.3144V37.9465L50.1949 41.1157H47.5628L46.1945 39.7473ZM52.3436 42.3921L54.6405 40.0952L57.3 42.7547V45.0516H55.0031L52.3436 42.3921Z" fill="#34B86E"/>
<path d="M46.9008 18.967C46.5811 18.967 46.2699 18.8374 46.0435 18.6122C45.8184 18.3869 45.6899 18.0745 45.6899 17.756C45.6899 17.4363 45.8184 17.1239 46.0435 16.8987C46.2687 16.6734 46.5811 16.5451 46.9008 16.5451C47.2193 16.5451 47.5305 16.6734 47.7559 16.8987C47.9823 17.1251 48.1118 17.4363 48.1118 17.756C48.1118 18.0745 47.9823 18.3869 47.7559 18.6122C47.5305 18.8374 47.2192 18.967 46.9008 18.967Z" fill="#34B86E"/>
</svg>
