<svg width="62" height="62" viewBox="0 0 62 62" fill="none" xmlns="http://www.w3.org/2000/svg">
<path d="M33.8129 25.7802C34.2858 25.3074 34.2858 24.5406 33.8129 24.0676C33.34 23.5948 32.5732 23.5948 32.1003 24.0676C31.8064 24.3616 31.4156 24.5235 30.9999 24.5235C30.5842 24.5235 30.1934 24.3616 29.8995 24.0676C29.4266 23.5948 28.6599 23.5948 28.1869 24.0676C27.714 24.5405 27.714 25.3072 28.1869 25.7802C28.9625 26.5557 29.9811 26.9435 30.9998 26.9435C32.0184 26.9435 33.0374 26.5557 33.8129 25.7802Z" fill="#34B86E"/>
<path d="M62 49.2602C62 49.2532 61.999 49.2464 61.9989 49.2394C61.9541 41.3021 55.4838 34.8582 47.5361 34.8582H37.4002V31.1107C40.5254 29.0326 42.5894 25.4799 42.5894 21.4538V17.4415H52.5282C53.197 17.4415 53.7391 16.8992 53.7391 16.2306C53.7391 15.5619 53.197 15.0196 52.5282 15.0196H43.2253V7.21876C43.2254 3.23829 39.9871 0 36.0066 0H25.9935C22.013 0 18.7747 3.23829 18.7747 7.21876V16.2306C18.7747 16.6912 19.0321 17.0917 19.4107 17.2964V21.4538C19.4107 25.4799 21.4749 29.0326 24.6 31.1107V34.8582H14.464C6.5163 34.8582 0.0460156 41.3019 0.00121094 49.2394C0.00096875 49.2464 0 49.2532 0 49.2602C0 49.2645 0.000605469 49.2684 0.000605469 49.2727C0.000605469 49.2893 0 49.3056 0 49.3222V60.7891C0 61.4577 0.542137 62 1.21094 62C1.87974 62 2.42188 61.4577 2.42188 60.7891V50.4711H11.625V60.7891C11.625 61.4577 12.1671 62 12.8359 62C13.5047 62 14.0469 61.4577 14.0469 60.7891V49.2602C14.0469 48.5915 13.5047 48.0493 12.8359 48.0493H2.48908C3.127 42.0054 8.25375 37.28 14.4638 37.28H17.2951C17.7274 42.1244 20.725 46.4605 25.1811 48.5425C25.3469 48.62 25.5212 48.6566 25.6929 48.6566C26.1486 48.6566 26.5852 48.398 26.7908 47.958C27.0739 47.352 26.8122 46.6314 26.2063 46.3483C25.2075 45.8816 24.2977 45.2774 23.495 44.565L25.4027 42.6573L27.345 44.5997C27.5721 44.8267 27.8801 44.9544 28.2013 44.9544C28.5224 44.9544 28.8305 44.8267 29.0575 44.5997L30.9999 42.6573L32.9422 44.5997C33.1693 44.8267 33.4773 44.9544 33.7985 44.9544C34.1196 44.9544 34.4277 44.8267 34.6547 44.5997L36.5971 42.6573L38.5047 44.5649C37.7086 45.2716 36.8073 45.8716 35.8186 46.3365C35.2133 46.6212 34.9533 47.3424 35.238 47.9477C35.4443 48.3864 35.88 48.6436 36.3347 48.6436C36.5072 48.6436 36.6826 48.6065 36.8491 48.5283C41.2872 46.4415 44.273 42.1112 44.7045 37.28H47.5358C53.7459 37.28 58.8727 42.0054 59.5106 48.0493H49.1641C48.4953 48.0493 47.9531 48.5915 47.9531 49.2602V60.7891C47.9531 61.4577 48.4953 62 49.1641 62C49.8329 62 50.375 61.4577 50.375 60.7891V50.4711H59.5781V60.7891C59.5781 61.4577 60.1203 62 60.7891 62C61.4579 62 62 61.4577 62 60.7891V49.3222C62 49.3056 61.9994 49.2893 61.9994 49.2727C61.9994 49.2684 62 49.2645 62 49.2602ZM21.1965 7.21876C21.1965 4.57371 23.3484 2.42188 25.9934 2.42188H36.0065C38.6516 2.42188 40.8034 4.57383 40.8034 7.21876V15.0196H21.1965V7.21876ZM21.8325 21.4538V17.4415H40.1676V21.4538C40.1676 26.5088 36.0551 30.6213 31 30.6213C25.9449 30.6213 21.8325 26.5088 21.8325 21.4538ZM40.1362 42.7713L37.4534 40.0886C37.2264 39.8615 36.9183 39.7339 36.5972 39.7339C36.2761 39.7339 35.968 39.8615 35.7409 40.0886L33.7986 42.0309L31.8563 40.0886C31.3834 39.6158 30.6166 39.6158 30.1436 40.0886L28.2013 42.0309L26.2589 40.0886C26.0319 39.8615 25.7238 39.7339 25.4027 39.7339C25.0815 39.7339 24.7735 39.8615 24.5464 40.0886L21.8635 42.7715C20.6958 41.1768 19.9441 39.2852 19.7267 37.28H25.8108C26.4796 37.28 27.0217 36.7378 27.0217 36.0691V32.3397C28.2629 32.7947 29.6031 33.0432 31 33.0432C32.3971 33.0432 33.7371 32.7947 34.9784 32.3397V36.0691C34.9784 36.7378 35.5206 37.28 36.1894 37.28H42.2733C42.0557 39.2843 41.3039 41.1762 40.1362 42.7713Z" fill="#34B86E"/>
<path d="M31.0159 5.00666C28.9678 5.00666 27.3017 6.6729 27.3017 8.72084C27.3017 10.7689 28.9679 12.4352 31.0159 12.4352C33.0638 12.4352 34.7301 10.7689 34.7301 8.72084C34.7302 6.67278 33.0639 5.00666 31.0159 5.00666ZM31.0159 10.0132C30.3032 10.0132 29.7236 9.43336 29.7236 8.72072C29.7236 8.00809 30.3034 7.42841 31.0159 7.42841C31.7284 7.42841 32.3082 8.00809 32.3082 8.72072C32.3082 9.43336 31.7285 10.0132 31.0159 10.0132Z" fill="#34B86E"/>
<path d="M55.9849 55.0017L56.1616 54.6555C56.4655 54.0599 56.229 53.3305 55.6334 53.0266C55.0375 52.7224 54.3082 52.959 54.0043 53.5548L52.9292 55.6617C52.7377 56.0371 52.7551 56.4851 52.9751 56.8445C53.1952 57.2039 53.5863 57.423 54.0078 57.423H54.0274L53.8832 57.7257C53.5957 58.3295 53.8521 59.0522 54.4559 59.3397C54.6239 59.4197 54.8011 59.4576 54.9756 59.4576C55.4281 59.4576 55.8622 59.2028 56.0698 58.7671L57.0385 56.7328C57.2172 56.3575 57.191 55.917 56.9692 55.5656C56.7545 55.2254 56.3854 55.0148 55.9849 55.0017Z" fill="#34B86E"/>
<path d="M8.03179 55.0017L8.20846 54.6555C8.51241 54.0599 8.27591 53.3305 7.68025 53.0266C7.08435 52.7224 6.35512 52.959 6.05118 53.5548L4.97611 55.6617C4.78454 56.0371 4.80197 56.4851 5.022 56.8445C5.24203 57.2039 5.63316 57.423 6.05469 57.423H6.0743L5.93008 57.7257C5.64261 58.3295 5.89896 59.0522 6.50273 59.3397C6.67081 59.4197 6.84797 59.4576 7.02247 59.4576C7.475 59.4576 7.90912 59.2028 8.11667 58.7671L9.08542 56.7328C9.26404 56.3575 9.23788 55.917 9.01604 55.5656C8.80134 55.2254 8.43212 55.0148 8.03179 55.0017Z" fill="#34B86E"/>
<path d="M31 47.4082C30.6815 47.4082 30.3691 47.5377 30.1439 47.763C29.9186 47.9882 29.7891 48.3007 29.7891 48.6191C29.7891 48.9376 29.9186 49.25 30.1439 49.4752C30.3691 49.7004 30.6815 49.8301 31 49.8301C31.3185 49.8301 31.6309 49.7005 31.8561 49.4752C32.0814 49.25 32.2109 48.9376 32.2109 48.6191C32.2109 48.3007 32.0814 47.9882 31.8561 47.763C31.6309 47.5378 31.3185 47.4082 31 47.4082Z" fill="#34B86E"/>
</svg>
