<svg width="65" height="60" viewBox="0 0 65 60" fill="none" xmlns="http://www.w3.org/2000/svg">
<path d="M28.128 54.372C30.5508 51.9873 32.9261 49.5548 35.3489 47.1224C36.0615 46.407 36.4415 45.5008 36.394 44.4992C36.394 43.5453 36.014 42.6868 35.3014 42.0191C35.1114 41.8283 34.9213 41.6852 34.6363 41.4944C34.4938 41.399 34.3513 41.3037 34.2087 41.1606L33.2586 40.4451L34.1612 39.682C35.3964 38.6328 36.204 37.6312 36.1565 36.2003C36.109 34.7218 35.4439 33.7202 34.0662 33.0048L33.3536 32.6232L33.5912 31.8601C34.5413 28.903 33.7337 27.8537 32.7361 27.1383C30.9308 25.8983 29.3156 26.1367 27.6054 27.9014L26.7978 28.7599L25.7527 27.186C25.1826 26.3275 24.2325 25.8029 23.1873 25.6598C22.1422 25.5644 21.1446 25.8982 20.432 26.6137C17.6767 29.38 14.9213 32.1463 12.2135 34.8649L9.79066 37.2973C9.64815 37.4404 9.50563 37.5835 9.36311 37.7266L7.46287 39.6343V36.7727C7.46287 36.2957 7.46287 35.8665 7.46287 35.3895C7.46287 34.2925 7.46287 33.1955 7.41536 32.0986C7.36786 31.3831 7.27285 30.8108 7.03532 30.3816C6.46524 29.2369 5.51512 28.4738 4.32748 28.283C3.18733 28.0922 1.99968 28.4738 1.09707 29.3323C0.289466 30.0954 -0.0430752 31.0493 0.00443076 32.0986L1.00206 33.1002C1.00206 32.7663 1.00206 32.4324 1.00206 32.1463C1.00206 31.5739 1.14457 31.097 1.3346 30.6677C1.95218 29.5231 3.18733 28.9984 4.42249 29.38C5.56263 29.7138 6.32273 30.7631 6.32273 32.0032C6.32273 33.7202 6.32273 35.4372 6.32273 37.1542V40.6836C6.32273 40.9698 6.41774 41.256 6.60776 41.3037C6.8928 41.399 7.08282 41.399 7.32035 41.1129C9.50563 38.9189 11.7384 36.6773 13.9237 34.4833L16.6315 31.7647C17.5341 30.8585 18.3892 30 19.2444 29.0938L20.8596 27.4722C21.6672 26.6614 22.7598 26.3752 23.7099 26.8045C24.5175 27.1383 25.0401 27.806 25.1826 28.5692C25.3251 29.38 25.0401 30.2862 24.375 30.9539C21.3821 34.0064 18.3417 37.0111 15.3489 40.0159C15.2063 40.159 15.1588 40.3498 15.1588 40.4928C15.1588 40.5882 15.2063 40.7313 15.3014 40.8267C15.5864 41.0652 15.8714 40.9698 16.109 40.7313C19.1968 37.6312 22.2847 34.531 25.3726 31.4308L26.1802 30.62C27.0828 29.7138 27.9855 28.8076 28.8881 27.9491C29.3631 27.4722 29.9807 27.2337 30.6458 27.2814C31.3109 27.2814 31.9285 27.5676 32.356 28.0445C33.2586 28.9984 33.2586 30.5723 32.3085 31.5262C28.2705 35.5803 24.2325 39.6343 20.147 43.6884C20.0045 43.8315 20.0044 43.9746 20.0044 44.07C20.0044 44.213 20.052 44.3084 20.147 44.4038C20.3845 44.6423 20.6695 44.5946 20.9071 44.4038L27.8429 37.6789C28.128 37.3927 28.4605 37.0588 28.7456 36.7727C29.4581 36.0572 30.1707 35.3418 30.9308 34.6264C31.4534 34.1017 32.1185 33.8633 32.8311 33.911C33.5437 33.9587 34.1612 34.2925 34.6363 34.8649C35.4439 35.8665 35.3014 37.2973 34.3037 38.2989L31.2159 41.399C28.318 44.3084 25.4201 47.2178 22.5223 50.1272C22.2847 50.3657 22.2372 50.5087 22.1897 50.5564C22.0947 50.7949 22.2372 51.0334 22.3797 51.1288C22.6173 51.2719 22.8548 51.2242 23.1398 50.9857C23.9474 50.1749 24.755 49.3641 25.5626 48.5533C26.2277 47.8855 26.8453 47.2655 27.5104 46.5978L28.318 45.787C29.2681 44.8331 30.2657 43.8315 31.2634 42.8776C31.7384 42.4483 32.3085 42.1622 32.9736 42.1622H33.0211C33.6862 42.1622 34.3037 42.4483 34.7788 42.973C35.6814 43.9269 35.6339 45.5008 34.7313 46.4547L27.2254 53.9905C25.7052 55.5167 24.185 57.0429 22.6173 58.6169C22.3797 58.8553 22.3322 59.1892 22.5698 59.4277C22.7598 59.6184 23.0923 59.6184 23.3299 59.38C23.6624 59.0461 23.995 58.7122 24.3275 58.3784L28.128 54.372Z" fill="#34B86E"/>
<path d="M8.98306 4.62639H39.1494C40.0995 4.62639 41.0021 4.62639 41.9522 4.62639C42.1422 4.62639 42.3323 4.531 42.3798 4.38792C42.4273 4.29253 42.5223 4.10175 42.3798 3.86327C42.3323 3.72019 42.2373 3.57711 41.7622 3.57711C37.4867 3.57711 33.2111 3.57711 28.9831 3.57711H20.2895C18.6743 3.57711 17.0591 3.57711 15.3964 3.57711C13.1161 3.57711 10.8833 3.57711 8.60301 3.57711C5.70515 3.57711 3.23484 6.00954 3.18733 8.87122C3.13982 12.2099 3.13982 15.5962 3.18733 18.8871C3.18733 20.0795 3.18733 21.3196 3.18733 22.5119C3.18733 22.7504 3.28234 22.9412 3.47237 22.9889C3.66239 23.0843 3.85241 23.0366 3.94743 22.9412C4.08994 22.8458 4.18496 22.655 4.18496 22.4165C4.18496 19.221 4.18496 16.0254 4.18496 12.8299V9.39587C4.23246 6.58187 6.18021 4.62639 8.98306 4.62639Z" fill="#34B86E"/>
<path d="M53.1161 0C52.5936 1.38315 51.976 2.81399 51.1684 4.19714C49.8857 6.3434 47.938 7.96502 45.0401 9.20509C44.8501 9.30048 44.6601 9.34817 44.5175 9.44356C46.6078 10.2067 48.508 11.1606 50.1232 12.6868C51.786 14.2607 52.8786 16.1685 53.7812 18.1717C54.5413 16.2162 55.4914 14.213 57.0591 12.496C58.6268 10.779 60.5746 9.68204 62.5223 8.82353C60.5271 8.06041 58.5318 7.05882 56.8691 5.4849C55.1114 3.91097 54.0187 1.95548 53.1161 0ZM59.1969 8.91892L58.0568 9.72973C56.5366 10.8267 55.3014 12.1145 54.3513 13.6884L53.6387 14.8808L52.7836 13.7838C51.5484 12.1622 50.2658 10.9698 48.7931 10.0159L47.5579 9.25278L48.7456 8.44197C50.2658 7.39269 51.5009 6.05723 52.451 4.48331L53.2111 3.24324L54.0187 4.43561C55.0639 5.91415 56.3465 7.15421 57.9617 8.1558L59.1969 8.91892Z" fill="#34B86E"/>
<path d="M59.3394 35.151C59.3394 32.7186 59.3394 30.2862 59.3394 27.8537C59.3394 25.7075 59.3394 23.5135 59.3394 21.3672C59.3394 21.1288 59.3394 20.938 59.2919 20.8426C59.1969 20.6995 59.0544 20.461 58.6743 20.5564C58.4843 20.6041 58.2943 20.8426 58.2943 21.0811C58.2943 21.7965 58.2943 22.5596 58.2943 23.275V30.8108C58.2943 38.2989 58.2943 45.787 58.2943 53.275V53.4181C58.2943 54.2766 58.2943 55.2305 57.9617 56.1844L58.7218 56.9475C59.1494 56.1367 59.3394 55.2305 59.3394 54.2766C59.3869 47.8855 59.3394 41.5421 59.3394 35.151Z" fill="#34B86E"/>
<path d="M35.4914 60H38.4368C43.5199 60 48.6031 60 53.6862 60C54.1137 60 54.4938 59.9523 54.9214 59.8569C56.0615 59.6184 56.9641 59.1415 57.6767 58.4738L56.9641 57.7583C55.729 58.8076 54.2088 58.9507 52.8311 58.9507C47.5579 58.903 42.1422 58.903 36.9641 58.903C35.0638 58.903 33.1636 58.903 31.3109 58.903H31.1684C31.1208 58.903 31.0733 58.903 31.0258 58.903C30.9783 58.903 30.9308 58.903 30.8833 58.903C30.6458 58.9507 30.5033 59.0938 30.4558 59.1892C30.4083 59.2846 30.3608 59.4754 30.4558 59.6661C30.5508 59.8092 30.6458 59.9523 31.0733 59.9523L35.4914 60Z" fill="#34B86E"/>
<path d="M1.04956 46.5024C1.04956 42.973 1.04956 39.4913 1.04956 35.9618L0.00443085 34.9126C0.00443085 38.5374 0.00443085 42.1622 0.00443085 45.787V46.0254C0.00443085 46.2162 0.00443085 46.407 0.00443085 46.5978C0.00443085 46.7886 0.146948 46.9316 0.194454 46.9793C0.24196 47.027 0.384477 47.1224 0.574501 47.0747C0.859537 47.0747 1.04956 46.8362 1.04956 46.5024Z" fill="#34B86E"/>
<path d="M64.6601 24.0382H59.0544C58.8643 24.0382 58.7218 23.8951 58.7218 23.7043C58.7218 23.5135 58.8643 23.3704 59.0544 23.3704H64.6601C64.8501 23.3704 64.9926 23.5135 64.9926 23.7043C65.0401 23.8951 64.8501 24.0382 64.6601 24.0382Z" fill="#34B86E"/>
<path d="M64.6601 26.8998H59.0544C58.8643 26.8998 58.7218 26.7568 58.7218 26.566C58.7218 26.3752 58.8643 26.2321 59.0544 26.2321H64.6601C64.8501 26.2321 64.9926 26.3752 64.9926 26.566C65.0401 26.7091 64.8501 26.8998 64.6601 26.8998Z" fill="#34B86E"/>
<path d="M64.6601 29.7138H59.0544C58.8643 29.7138 58.7218 29.5707 58.7218 29.38C58.7218 29.1892 58.8643 29.0461 59.0544 29.0461H64.6601C64.8501 29.0461 64.9926 29.1892 64.9926 29.38C65.0401 29.5231 64.8501 29.7138 64.6601 29.7138Z" fill="#34B86E"/>
<path d="M64.6601 32.5278H59.0544C58.8643 32.5278 58.7218 32.3847 58.7218 32.194C58.7218 32.0032 58.8643 31.8601 59.0544 31.8601H64.6601C64.8501 31.8601 64.9926 32.0032 64.9926 32.194C65.0401 32.337 64.8501 32.5278 64.6601 32.5278Z" fill="#34B86E"/>
<path d="M64.6601 35.3418H59.0544C58.8643 35.3418 58.7218 35.1987 58.7218 35.0079C58.7218 34.8172 58.8643 34.6741 59.0544 34.6741H64.6601C64.8501 34.6741 64.9926 34.8172 64.9926 35.0079C65.0401 35.151 64.8501 35.3418 64.6601 35.3418Z" fill="#34B86E"/>
<path d="M9.74316 9.63434H4.13745C3.94743 9.63434 3.80491 9.49126 3.80491 9.30048C3.80491 9.1097 3.94743 8.96661 4.13745 8.96661H9.74316C9.93318 8.96661 10.0757 9.1097 10.0757 9.30048C10.0757 9.49126 9.93318 9.63434 9.74316 9.63434Z" fill="#34B86E"/>
<path d="M9.74316 12.4483H4.13745C3.94743 12.4483 3.80491 12.3052 3.80491 12.1145C3.80491 11.9237 3.94743 11.7806 4.13745 11.7806H9.74316C9.93318 11.7806 10.0757 11.9237 10.0757 12.1145C10.0757 12.3052 9.93318 12.4483 9.74316 12.4483Z" fill="#34B86E"/>
<path d="M9.74316 15.2623H4.13745C3.94743 15.2623 3.80491 15.1192 3.80491 14.9285C3.80491 14.7377 3.94743 14.5946 4.13745 14.5946H9.74316C9.93318 14.5946 10.0757 14.7377 10.0757 14.9285C10.0757 15.1192 9.93318 15.2623 9.74316 15.2623Z" fill="#34B86E"/>
<path d="M9.74316 18.0763H4.13745C3.94743 18.0763 3.80491 17.9332 3.80491 17.7424C3.80491 17.5517 3.94743 17.4086 4.13745 17.4086H9.74316C9.93318 17.4086 10.0757 17.5517 10.0757 17.7424C10.0757 17.9332 9.93318 18.0763 9.74316 18.0763Z" fill="#34B86E"/>
<path d="M9.74316 20.8903H4.13745C3.94743 20.8903 3.80491 20.7472 3.80491 20.5564C3.80491 20.3657 3.94743 20.2226 4.13745 20.2226H9.74316C9.93318 20.2226 10.0757 20.3657 10.0757 20.5564C10.0757 20.7472 9.93318 20.8903 9.74316 20.8903Z" fill="#34B86E"/>
<path d="M64.6601 38.1558H59.0544C58.8643 38.1558 58.7218 38.0127 58.7218 37.8219C58.7218 37.6312 58.8643 37.4881 59.0544 37.4881H64.6601C64.8501 37.4881 64.9926 37.6312 64.9926 37.8219C65.0401 37.965 64.8501 38.1558 64.6601 38.1558Z" fill="#34B86E"/>
<path d="M64.6601 40.9698H59.0544C58.8643 40.9698 58.7218 40.8267 58.7218 40.6359C58.7218 40.4452 58.8643 40.3021 59.0544 40.3021H64.6601C64.8501 40.3021 64.9926 40.4452 64.9926 40.6359C65.0401 40.779 64.8501 40.9698 64.6601 40.9698Z" fill="#34B86E"/>
<path d="M64.6601 43.7838H59.0544C58.8643 43.7838 58.7218 43.6407 58.7218 43.4499C58.7218 43.2591 58.8643 43.1161 59.0544 43.1161H64.6601C64.8501 43.1161 64.9926 43.2591 64.9926 43.4499C65.0401 43.6407 64.8501 43.7838 64.6601 43.7838Z" fill="#34B86E"/>
<path d="M64.6601 46.5978H59.0544C58.8643 46.5978 58.7218 46.4547 58.7218 46.2639C58.7218 46.0731 58.8643 45.93 59.0544 45.93H64.6601C64.8501 45.93 64.9926 46.0731 64.9926 46.2639C65.0401 46.4547 64.8501 46.5978 64.6601 46.5978Z" fill="#34B86E"/>
<path d="M64.6601 49.4118H59.0544C58.8643 49.4118 58.7218 49.2687 58.7218 49.0779C58.7218 48.8871 58.8643 48.744 59.0544 48.744H64.6601C64.8501 48.744 64.9926 48.8871 64.9926 49.0779C65.0401 49.2687 64.8501 49.4118 64.6601 49.4118Z" fill="#34B86E"/>
</svg>
