<svg width="91" height="76" viewBox="0 0 91 76" fill="none" xmlns="http://www.w3.org/2000/svg">
<path d="M12.6864 21.3956C12.6568 21.5208 12.6518 21.5142 12.6205 21.6806C12.5875 21.8634 12.5356 22.0423 12.4657 22.2144C12.4235 22.3484 12.363 22.4759 12.2861 22.5934C12.1559 22.8059 12.09 22.9114 12.0258 23.0003C11.8907 23.1882 11.8429 23.2178 11.6518 23.4567C11.5282 23.6099 11.4442 23.7269 11.3585 23.8488C11.2728 23.9708 11.2102 24.0597 10.8642 24.582L10.6187 24.956C10.454 25.2279 10.4441 25.2855 10.2118 25.7057C10.0668 25.9693 10.0651 26.0352 9.92343 26.2972C9.79825 26.6763 9.71483 27.068 9.67464 27.4653C9.67464 27.6745 9.67464 27.7602 9.65817 28.0683C9.64828 28.4736 9.64169 28.6763 9.64169 28.7372C9.64169 29.1129 9.65817 29.2035 9.69112 30.1377C9.69902 30.3224 9.69351 30.5074 9.67464 30.6913C9.65982 30.8346 9.6384 30.9434 9.60874 31.0999C9.55437 31.3899 9.53295 31.4179 9.47858 31.6864C9.41927 31.9846 9.3995 32.0159 9.34842 32.2565C9.29735 32.497 9.28417 32.586 9.26439 32.7145C9.22836 32.8941 9.20305 33.0756 9.18861 33.2582C9.16554 33.4658 9.13423 33.6207 9.12105 33.8695C9.07986 34.3127 9.03867 34.5186 9.03044 34.8383C9.01561 35.4297 9.01561 35.2057 9.0222 35.695C9.0222 36.0904 9.01231 36.0838 8.99419 36.5781C8.9843 36.8516 8.99419 37.3772 8.99419 37.5354C8.9843 38.112 8.96783 39.2324 8.94641 40.6806C8.88051 40.6098 8.78165 40.501 8.65314 40.3709C8.52572 40.259 8.41082 40.1336 8.31044 39.9969C8.22928 39.8668 8.17339 39.7226 8.14568 39.5718C8.09296 39.3197 8.13744 39.211 8.16216 38.7908C8.18294 38.5304 8.18294 38.2687 8.16216 38.0082C8.12166 37.5361 7.989 37.0766 7.77168 36.6556C7.66639 36.4463 7.54637 36.2448 7.4125 36.0525C7.23897 35.7918 7.0367 35.5514 6.80949 35.3358C6.59056 35.1241 6.35102 34.9348 6.09443 34.7707C5.671 34.4692 5.5672 34.4412 5.18167 34.1265C4.98219 33.965 4.76945 33.8206 4.5457 33.6948C4.15193 33.4592 4.05142 33.4082 3.74827 33.222C3.35779 32.988 3.19468 32.8809 3.03156 32.7821C2.55358 32.4954 2.05199 32.2502 1.53226 32.0489C1.5828 32.1178 1.63784 32.1833 1.69702 32.245C1.8006 32.3609 1.91061 32.4709 2.02654 32.5745C2.23664 32.79 2.42432 33.0262 2.58672 33.2796C2.66348 33.4103 2.73065 33.5463 2.78772 33.6866C2.90476 33.9209 2.9975 34.1666 3.06452 34.4198C3.22928 34.8778 3.19797 34.8498 3.31001 35.153C3.39733 35.3902 3.42699 35.4347 3.80428 36.2618C4.03165 36.7676 4.01682 36.7445 4.09755 36.9208C4.23969 37.2592 4.40827 37.5859 4.60172 37.8978C4.84023 38.2128 5.12328 38.4914 5.44199 38.7249C5.64954 38.9109 5.87984 39.0698 6.12738 39.1978C6.41736 39.3378 6.57882 39.351 7.13736 39.557C7.33507 39.6295 7.49488 39.6937 7.59374 39.7349C7.75893 39.8558 7.91179 39.9926 8.05012 40.1435C8.20499 40.3083 8.27255 40.4236 8.45708 40.6641C8.55923 40.7976 8.71245 40.9937 8.91346 41.2177C8.96044 41.4652 8.98962 41.7157 9.00078 41.9674C9.01396 42.2672 9.02055 42.3381 9.05515 42.6528C9.10293 43.0894 9.10787 43.1125 9.15236 43.4947C9.21991 44.073 9.21497 44.0401 9.28746 44.4618C9.35336 44.8375 9.41597 45.1209 9.48352 45.3894C9.56755 45.7189 9.57579 45.7354 9.66311 46.0913C9.78668 46.5971 9.81634 46.6828 9.95638 47.2644C10.0437 47.6236 10.108 47.8905 10.2167 48.2414C10.3815 48.7901 10.4342 48.79 10.6401 49.4474C10.7242 49.711 10.7769 49.9055 10.8856 50.2943C10.9186 50.4162 10.9581 50.5596 10.9993 50.7507C11.0207 50.8528 11.0372 50.9369 11.0487 50.9945C10.8976 50.9876 10.7488 50.9547 10.6088 50.8973C10.4425 50.8144 10.2842 50.7162 10.136 50.604C9.84599 50.4195 9.82458 50.4393 9.66311 50.3273C9.4848 50.1918 9.32572 50.0327 9.19025 49.8544C8.82778 49.4277 8.81955 49.3601 8.55428 49.057C8.34982 48.8195 8.12964 48.596 7.89525 48.388C7.68335 48.2007 7.45994 48.0268 7.22633 47.8674C6.91987 47.6549 6.77159 47.528 6.56729 47.4753C6.25754 47.4008 5.94016 47.3626 5.62157 47.3616C4.69892 47.3039 4.89005 47.3006 4.43202 47.2957C3.97401 47.276 3.5152 47.3036 3.06287 47.3781C2.75642 47.4341 2.77454 47.4506 2.21601 47.5939C2.03313 47.64 2.00676 47.6763 1.48283 47.8015C0.86828 47.9481 0.715054 47.991 0.586542 48.0289C0.336108 48.1047 0.133455 48.1755 0 48.2249C0.203124 48.2959 0.409921 48.3558 0.619494 48.4045C1.00009 48.4935 1.04787 48.4885 1.31972 48.5693C1.55146 48.6366 1.77562 48.7277 1.98864 48.8411C2.18721 48.9583 2.37766 49.0888 2.55871 49.2316C3.02992 49.5858 3.05298 49.6369 3.3825 49.8906C3.59174 50.0439 3.54726 49.9994 4.18158 50.4278C4.71046 50.7869 4.76153 50.8314 4.97902 50.9665C5.24285 51.1427 5.52382 51.2917 5.81764 51.4114C6.03848 51.4923 6.26791 51.5476 6.50139 51.5761C6.76108 51.6111 7.0243 51.6111 7.28399 51.5761C7.52574 51.5661 7.76338 51.5102 7.98422 51.4114C8.04188 51.3817 8.06165 51.3669 8.45708 51.1181L8.76682 50.922C8.94363 50.8867 9.12366 50.8702 9.30394 50.8726C9.48529 50.8762 9.66581 50.8983 9.8427 50.9385C10.0553 50.9746 10.2632 51.0349 10.4622 51.1181C10.7306 51.2353 10.974 51.4031 11.1789 51.6124C11.2965 51.7371 11.4003 51.8741 11.4886 52.021C11.6135 52.2608 11.7171 52.5111 11.7984 52.769C11.9034 53.0045 12.0228 53.2334 12.1559 53.4544C12.3668 53.8481 12.3454 53.8481 12.7095 54.5945C12.8891 54.9619 13.0604 55.3112 13.296 55.7478C13.3784 55.901 13.5465 56.2157 13.7689 56.5963C14.0984 57.1516 14.1907 57.2554 14.8777 58.323C15.0978 58.6839 15.3456 59.0271 15.6191 59.3494C15.9025 59.7152 15.9355 59.7811 16.4083 60.338C16.9191 60.9443 16.8763 60.9229 17.2321 61.3496C17.5238 61.7055 17.8483 62.0087 18.2207 62.3925L18.6128 62.783C18.3978 62.8588 18.1653 62.8702 17.9439 62.816C17.7462 62.7616 17.6341 62.666 17.3409 62.4403C17.0954 62.2509 16.8466 62.0762 16.5912 61.8867C16.0969 61.5111 15.858 61.3249 15.6785 61.203C15.3021 60.9147 14.8851 60.6837 14.4411 60.5176C13.993 60.3677 13.6437 60.3528 12.9583 60.338C12.5009 60.3186 12.0426 60.3406 11.5891 60.4039C11.1348 60.4735 10.6876 60.5838 10.2529 60.7334C9.9465 60.8356 10.0602 60.8175 8.91675 61.3035C8.29232 61.5688 7.9282 61.7104 7.36802 61.9872C7.20326 62.068 7.06651 62.1372 6.97754 62.1833C7.30668 62.1611 7.63695 62.1611 7.96609 62.1833C8.28999 62.1988 8.61193 62.2423 8.92829 62.3135C9.2036 62.3843 9.47386 62.4734 9.73725 62.5804C9.93661 62.6545 10.0075 62.6875 10.5693 62.9231C11.2448 63.2065 11.1674 63.1702 11.4656 63.2971C12.2218 63.6266 12.1559 63.6184 12.4755 63.7386C12.8117 63.8696 13.1543 63.9834 13.502 64.0797C13.7106 64.1518 13.9229 64.2129 14.138 64.2626C14.4076 64.3266 14.6864 64.3434 14.9618 64.312C15.5153 64.2807 15.7856 64.2659 16.0541 64.1654C16.2918 64.0899 16.5093 63.9614 16.6901 63.7897C16.8085 63.6483 16.9392 63.5177 17.0806 63.3992C17.2114 63.294 17.374 63.2359 17.5419 63.2345L18.8237 63.2213C18.9341 63.3152 19.0989 63.4552 19.2966 63.6282C19.809 64.0797 20.1204 64.3812 20.5356 64.7816C21.4071 65.6202 21.8421 66.0387 22.2622 66.3632C22.539 66.5774 22.427 66.4736 23.2722 67.0799C24.241 67.7769 24.3168 67.8642 24.8209 68.2036C25.2575 68.4985 25.5904 68.6979 26.2543 69.0834C26.63 69.3042 27.2033 69.6403 27.981 70.0456C28.6895 70.4147 29.0437 70.6008 29.3666 70.7293C29.5578 70.8068 29.8609 70.9188 30.2629 71.1215C30.5084 71.2434 30.7045 71.3554 30.833 71.4312L30.6386 71.5779C30.2633 71.604 29.8864 71.593 29.5133 71.5449C29.3152 71.5215 29.1192 71.4835 28.9267 71.4312C28.6717 71.3472 28.4214 71.2493 28.1771 71.138C28.0716 71.0968 27.8064 71.0177 27.2808 70.8595C26.798 70.7162 26.5558 70.6437 26.4339 70.6157C26.1226 70.5441 25.8066 70.4951 25.4882 70.469C25.1407 70.4468 24.7919 70.4523 24.4453 70.4855C24.0274 70.499 23.6124 70.5592 23.2079 70.6651C22.9332 70.7454 22.6659 70.849 22.4089 70.9748C22.0596 71.1396 21.9146 71.2434 21.5455 71.4477C20.8486 71.8299 20.8321 71.7986 20.2901 72.1067C19.8255 72.382 19.3792 72.6869 18.9539 73.0195C18.5173 73.349 18.5947 73.3276 17.9109 73.8664C17.3639 74.298 17.2816 74.3392 16.868 74.6819C16.5154 74.9752 16.4446 75.0543 16.1035 75.341C15.7625 75.6276 15.4445 75.8501 15.255 76C15.7987 75.7924 16.2222 75.6079 16.5105 75.4777C16.7334 75.3885 16.9639 75.3196 17.1992 75.2718C17.4927 75.1752 17.7982 75.1197 18.107 75.107C18.6589 75.0889 18.9308 75.107 19.5091 75.1235H20.8123C21.9541 75.1235 21.997 75.1235 22.3117 75.1235C22.6263 75.1235 22.5374 75.1235 23.549 75.1564C23.7138 75.1564 24.2723 75.1729 24.984 75.1564C25.2524 75.1676 25.521 75.1398 25.7815 75.074C26.0619 74.9749 26.33 74.8439 26.5806 74.6836C26.8131 74.5635 27.0337 74.4217 27.2396 74.2601C27.4703 74.0657 27.4933 73.9833 27.8311 73.6522C27.9863 73.5121 28.1342 73.3642 28.2743 73.209C28.5741 72.8795 28.6137 72.7724 28.8526 72.5812C29.0657 72.4385 29.296 72.3234 29.538 72.2385C29.752 72.1428 29.9722 72.0614 30.197 71.9947C30.4557 71.9164 30.7219 71.8651 30.9912 71.8415C31.3354 71.8188 31.6811 71.846 32.0176 71.9222C32.6569 72.0622 32.8002 72.1677 33.6372 72.4873C33.741 72.5269 34.0425 72.6208 34.6356 72.7921C35.2288 72.9635 35.6917 73.1019 35.8301 73.1398C36.3672 73.2864 36.6243 73.4017 36.906 73.4693C37.4612 73.6044 37.7298 73.6489 38.1615 73.7313C38.6838 73.8301 39.1665 73.9224 39.8239 74.008C40.2242 74.0608 40.6164 74.1119 41.1271 74.1382C41.7466 74.1712 42.142 74.1876 42.7747 74.1827C43.3118 74.1827 44.0236 74.1497 44.9413 74.0904L44.8919 73.5204C44.2806 73.5088 43.8555 73.578 43.4914 73.5681C42.6067 73.5451 42.2953 73.5352 42.1552 73.5352C41.7041 73.5174 41.2543 73.4761 40.8075 73.4116C40.2292 73.3358 40.1847 73.3078 39.2225 73.1497C38.6815 73.0702 38.1448 72.9635 37.6145 72.83C37.4497 72.7954 36.8203 72.606 36.2074 72.4231C35.6505 72.2583 35.6258 72.2731 34.9207 72.0474C34.2155 71.8217 33.8777 71.68 33.5021 71.5531C33.0078 71.3884 32.7393 71.362 32.4427 71.1297C32.2734 70.9896 32.1203 70.831 31.9863 70.6569C31.8568 70.4735 31.7375 70.2832 31.6288 70.0868C31.2993 69.5398 31.2515 69.525 31.1724 69.3207C31.0959 69.1081 31.0466 68.8866 31.0258 68.6616C30.9914 68.3807 30.9804 68.0975 30.9928 67.8148C30.9891 67.5585 31.0056 67.3023 31.0422 67.0486C31.0701 66.8713 31.1108 66.6962 31.1642 66.5247C31.2294 66.3171 31.2649 66.1013 31.2696 65.8838C31.2696 65.7042 31.2696 65.4966 31.2597 65.2676C31.2545 64.8395 31.1925 64.414 31.0752 64.0022C30.9344 63.5892 30.731 63.2002 30.4722 62.8489C30.169 62.3975 30.1097 62.4255 29.5594 61.7253C29.0091 61.025 28.9811 60.9674 28.7488 60.6692C28.7061 60.6161 28.6599 60.566 28.6104 60.5192C28.378 60.3165 28.1615 60.0962 27.9629 59.8602C27.7256 59.5801 27.5378 59.3659 27.2281 58.987C26.7338 58.3741 26.7832 58.5026 26.4142 57.9457C26.2478 57.6907 26.1007 57.4236 25.9742 57.1466C25.8095 56.7891 25.6909 56.4876 25.5508 56.1037C25.4602 55.8566 25.3861 55.649 25.3383 55.5007C25.2902 55.8086 25.2578 56.1187 25.2411 56.4299C25.2213 56.7479 25.2213 56.883 25.1999 57.2438C25.1768 57.6294 25.1719 57.7085 25.1455 58.1731C25.1356 58.3477 25.1093 58.7629 25.0944 59.216C25.0747 59.8256 25.0549 59.8997 25.0697 60.7565C25.0697 61.46 25.0813 61.3677 25.0944 61.7582C25.1148 62.2503 25.1699 62.7403 25.2592 63.2246C25.3152 63.6204 25.3967 64.0123 25.503 64.3977C25.6091 64.8317 25.7754 65.2488 25.9973 65.6367C26.1959 65.9465 26.425 66.2357 26.6811 66.5C26.9848 66.8609 27.3153 67.1985 27.6696 67.51C27.9991 67.79 28.3781 68.0174 29.136 68.4721C29.8576 68.9055 30.0784 69.0027 30.4886 69.3355C30.8199 69.5797 31.0831 69.9047 31.2531 70.2796C31.3132 70.4207 31.3569 70.5683 31.3833 70.7195C31.2348 70.6961 31.0879 70.6636 30.9434 70.6223C30.403 70.4674 30.0916 70.2202 29.739 70.0357C29.1277 69.7161 29.5017 69.8495 28.5082 69.408C28.2331 69.2861 27.5938 68.9137 26.9842 68.6023C26.5992 68.4193 26.2333 68.1985 25.8919 67.9433C25.0681 67.3831 25.0302 67.3122 24.4255 66.8839C24.2113 66.7323 24.236 66.7405 23.236 65.9546C22.0415 65.0155 22.0563 65.0419 21.7696 64.8013C21.1501 64.2724 20.6772 63.8128 20.4021 63.531C20.0841 63.2147 19.9078 63.0285 19.2125 62.325C19.0066 62.119 18.8369 61.951 18.7183 61.8307C18.733 61.3796 18.722 60.9279 18.6853 60.478C18.6404 60.2246 18.646 59.9648 18.7018 59.7136C18.7726 59.4598 18.8962 59.2967 19.2076 58.931C19.9144 58.0989 19.9292 58.1747 20.0874 57.921C20.3395 57.5124 20.4169 57.1384 20.5108 56.6326C20.5931 56.2144 20.6258 55.7881 20.608 55.3623C20.565 54.9282 20.489 54.4981 20.3807 54.0755C20.2834 53.5583 20.158 53.0468 20.005 52.5433C19.7661 51.843 19.6541 51.8331 19.5009 51.2252C19.4745 51.1214 19.4168 50.8083 19.3048 50.1823C19.2415 49.8923 19.198 49.5983 19.1746 49.3025C19.1632 48.9974 19.1792 48.6919 19.2224 48.3897C19.2704 47.9785 19.3413 47.5704 19.435 47.1672C19.3262 47.3056 19.1911 47.4868 19.0445 47.7059C18.9638 47.8229 18.8138 48.0519 18.6211 48.3897C18.4283 48.7274 18.397 48.8214 18.0823 49.4326C17.9274 49.7358 17.9686 49.6468 17.5781 50.3932C17.2354 51.0522 17.13 51.2565 17.0839 51.3389C16.8845 51.7359 16.7807 51.9402 16.6604 52.2187C16.5362 52.4873 16.4262 52.7623 16.3309 53.0425C16.2535 53.2814 16.2634 53.2929 16.0871 53.9882C16.0048 54.2788 15.9382 54.5736 15.8877 54.8713C15.8386 55.1843 15.833 55.5025 15.8712 55.817C15.925 56.1653 16.023 56.5052 16.1629 56.8286C16.2979 57.1914 16.4558 57.5453 16.6357 57.888C16.8212 58.2424 17.0281 58.5852 17.2552 58.9145C17.4875 59.2539 17.6374 59.4269 17.939 59.8915C18.0444 60.0563 18.1284 60.1914 18.1828 60.2836C18.1943 60.5934 18.2059 60.9031 18.2157 61.2129C18.051 60.9657 17.7429 60.6263 17.392 60.1782C16.8894 59.5455 16.8038 59.4351 16.4462 58.9474C16.1167 58.4927 16.1068 58.4944 15.5499 57.6524C15.3951 57.4152 15.4396 57.463 14.8168 56.4859C14.2203 55.5122 14.2203 55.5122 14.0885 55.275C13.9567 55.0377 13.9057 54.9883 13.4295 54.1217C13.0539 53.4363 13.0621 53.4033 12.7935 52.8514C12.4393 52.1281 12.5316 52.2764 12.2235 51.6453C11.8939 50.955 11.7819 50.7869 11.6847 50.4063C11.6148 50.1371 11.5767 49.8606 11.571 49.5825C11.5691 49.3194 11.5967 49.0569 11.6534 48.7999C11.6942 48.6061 11.7492 48.4156 11.8182 48.2299C11.9106 47.9549 12.0421 47.6947 12.2086 47.4571C12.4019 47.2112 12.6327 46.9972 12.8924 46.8228C13.3751 46.4538 13.4806 46.4834 13.7887 46.1869C13.9755 46.005 14.1413 45.8027 14.283 45.5838C14.4488 45.3371 14.5906 45.0751 14.7064 44.8012C14.7284 44.7478 14.746 44.6927 14.7591 44.6365C14.7874 44.5184 14.8002 44.3971 14.797 44.2757C14.797 44.0648 14.797 43.7979 14.797 43.493C14.797 43.1421 14.8184 42.9889 14.83 42.5638C14.83 42.399 14.83 42.1223 14.83 41.5753C14.83 40.7037 14.83 40.2572 14.8135 40.0265C14.8135 39.8618 14.8036 39.7267 14.797 39.4565C14.799 39.2714 14.8116 39.0865 14.8349 38.9029C14.8547 38.662 14.9137 38.4261 15.0095 38.2043C15.1339 37.9187 15.2753 37.6409 15.433 37.3723C15.5335 37.1943 15.6702 36.9538 15.8399 36.672C15.629 36.8368 15.4247 37.0015 15.2138 37.1663C15.0672 37.3047 14.9123 37.4283 14.7657 37.5733C14.7146 37.6227 14.5153 37.8171 14.2269 38.1104C13.9386 38.4036 13.937 38.4135 13.6898 38.6656C13.2466 39.1154 13.2614 39.0775 13.0539 39.2999C12.7639 39.6113 12.7919 39.6295 12.3948 40.0661C11.9796 40.5389 12.0373 40.5307 11.833 40.7597C11.6551 40.9831 11.4948 41.22 11.3535 41.4682C11.2147 41.6572 11.0945 41.8591 10.9944 42.0712C10.8639 42.3462 10.7618 42.6338 10.6896 42.9296C10.6117 43.1824 10.55 43.44 10.505 43.7006C10.4633 43.9643 10.4523 44.2319 10.4721 44.4981C10.4776 44.7883 10.5107 45.0774 10.5709 45.3614C10.5924 45.4586 10.6385 45.6168 10.7357 45.9331C10.8626 46.3582 10.9268 46.5724 10.996 46.747C11.1262 47.0766 11.1723 47.1013 11.2399 47.3336C11.2965 47.5356 11.3297 47.7435 11.3387 47.9531C11.3381 48.2397 11.3183 48.5259 11.2794 48.8098C11.1396 48.6843 11.0274 48.5312 10.9499 48.36C10.8288 48.1214 10.7465 47.865 10.706 47.6005C10.6171 47.2067 10.622 47.1804 10.4622 46.5839C10.3518 46.177 10.2843 45.8639 10.2497 45.7041C10.1491 45.2378 10.0948 44.8984 10.0058 44.3185C9.90201 43.6595 9.92178 43.7006 9.82622 43.0976C9.70924 42.3628 9.68288 42.3249 9.63016 41.8916C9.60545 41.6823 9.62192 41.7763 9.53295 40.7992C9.47529 40.1682 9.46046 40.0364 9.45057 39.7563C9.45057 39.6921 9.45057 39.4515 9.45057 38.9754C9.45057 38.2784 9.45057 38.2059 9.48352 38.0791C9.54449 37.8138 9.66146 37.6441 9.87565 37.3129C10.0181 37.058 10.1993 36.8268 10.4128 36.6275C10.5775 36.4859 10.6368 36.4842 11.3255 36.1333C11.7836 35.9026 12.0702 35.7477 12.1394 35.7098C12.4334 35.5606 12.7169 35.3916 12.9879 35.204C13.2508 35.0027 13.4911 34.7734 13.7046 34.5203C14.0177 34.1398 14.2756 33.7172 14.4708 33.2648C14.507 33.1791 14.5976 32.9353 14.7789 32.441C14.9173 32.0637 14.9782 31.9303 15.0573 31.6749C15.1364 31.4195 15.1282 31.3948 15.204 31.1691C15.2725 30.9426 15.3596 30.7222 15.4643 30.51C15.489 30.4606 15.5994 30.2744 15.8218 29.907C15.9684 29.6632 16.0014 29.6105 16.0673 29.4984C16.2568 29.1689 16.2485 29.1524 16.3441 29.0041C16.5301 28.7321 16.7315 28.4708 16.9471 28.2215C17.041 28.1095 17.1728 27.9513 17.3376 27.7652C16.9982 27.948 16.7263 28.1079 16.5401 28.2215C16.1629 28.4571 16.0838 28.5099 15.7938 28.6746C15.4346 28.8641 15.4247 28.8707 15.1051 29.0371C14.8411 29.1696 14.5887 29.3239 14.3505 29.4984C13.9221 29.79 13.9238 29.7653 13.6206 29.9746C13.4872 30.0685 13.2911 30.2217 12.9204 30.5282C12.6436 30.7539 12.5003 30.8709 12.3174 31.034C12.1724 31.1625 12.0636 31.2663 11.8445 31.4739C11.676 31.6143 11.5179 31.7668 11.3717 31.9303C11.2416 32.0555 11.1195 32.1886 11.0059 32.329C10.8507 32.541 10.7066 32.761 10.5742 32.988C10.45 33.1866 10.3468 33.3975 10.2661 33.6174C10.1868 33.9424 10.1317 34.2728 10.1014 34.606C10.0651 34.8488 10.0431 35.0937 10.0355 35.3391C10.0606 35.5446 10.0661 35.7521 10.0519 35.9586C10.0432 36.096 10.0216 36.2322 9.98769 36.3656C9.91289 36.6409 9.77909 36.8967 9.59556 37.1152C9.52365 36.8536 9.47458 36.5863 9.44893 36.3162C9.42589 35.9582 9.4314 35.599 9.4654 35.2419C9.49011 34.8597 9.51977 34.5697 9.57908 33.9865C9.63675 33.4345 9.67794 33.0869 9.69442 32.96C9.71406 32.6756 9.75203 32.3927 9.8081 32.1131C9.83795 31.8901 9.88532 31.6697 9.94979 31.4541C9.99752 31.2805 10.0762 31.117 10.1821 30.9714C10.3189 30.799 10.4779 30.6456 10.655 30.515C11.0916 30.1558 10.9367 30.2481 11.4046 29.856C12.1394 29.2513 12.0867 29.3798 12.3009 29.1557C12.6396 28.7963 12.8856 28.3597 13.0176 27.8838C13.0734 27.6591 13.112 27.4306 13.1329 27.2C13.1609 26.9562 13.1675 26.7832 13.1807 26.3532C13.2038 25.6134 13.2137 25.2444 13.2137 24.8374C13.2137 24.4996 13.2137 24.2756 13.1972 23.9576C13.1791 23.5737 13.1642 23.5638 13.1329 23.0778C13.0819 22.2968 13.1165 22.254 13.0506 21.9047C13.0275 21.7778 12.9731 21.5224 12.8858 21.2193C12.8495 21.0858 12.8149 20.9738 12.7886 20.8898C12.7639 20.9853 12.7474 21.0545 12.7375 21.1155C12.7161 21.2473 12.7029 21.2967 12.6864 21.3956Z" fill="#40AF6E"/>
<path d="M77.6047 54.6028C77.6344 54.4775 77.6377 54.4841 77.669 54.3177C77.7028 54.1351 77.7547 53.9563 77.8238 53.7839C77.866 53.65 77.9265 53.5224 78.0034 53.405C78.1336 53.1924 78.1995 53.087 78.2637 52.998C78.4005 52.8085 78.4466 52.7805 78.6394 52.5416C78.763 52.3867 78.8453 52.2714 78.9327 52.1495C79.02 52.0276 79.0793 51.9386 79.4269 51.4163L79.6708 51.0423C79.8355 50.7705 79.8471 50.7128 80.0777 50.2927C80.2227 50.029 80.2244 49.9631 80.3661 49.7012C80.4928 49.3224 80.5763 48.9306 80.6149 48.533C80.6149 48.3238 80.6149 48.2381 80.6313 47.93C80.6429 47.5247 80.6478 47.3221 80.6478 47.2611C80.6478 46.8855 80.6313 46.7948 80.6 45.8606C80.5914 45.676 80.5963 45.491 80.6149 45.3071C80.6313 45.1637 80.6511 45.0533 80.6808 44.8985C80.7351 44.6085 80.7582 44.5788 80.8109 44.3119C80.8702 44.0137 80.89 43.9824 80.9411 43.7419C80.9922 43.5013 81.0053 43.4123 81.0251 43.2822C81.061 43.1031 81.0868 42.9221 81.1025 42.7401C81.124 42.5325 81.1553 42.3776 81.1701 42.1289C81.2096 41.6857 81.2508 41.4797 81.2591 41.1584C81.2755 40.5686 81.2739 40.7927 81.2673 40.3033C81.2673 39.9063 81.2788 39.9145 81.2953 39.4202C81.3052 39.1467 81.2953 38.6211 81.2953 38.463C81.3052 37.8847 81.3233 36.766 81.3447 35.3177C81.409 35.3886 81.5095 35.4973 81.638 35.6275C81.765 35.7393 81.8793 35.8647 81.9791 36.0015C82.0599 36.1311 82.1158 36.2747 82.1438 36.4249C82.1982 36.6786 82.1537 36.7874 82.1273 37.2075C82.1066 37.468 82.1066 37.7297 82.1273 37.9901C82.1672 38.4625 82.3004 38.9223 82.5195 39.3428C82.6232 39.5525 82.7428 39.7541 82.877 39.9458C83.0505 40.2065 83.2528 40.4469 83.48 40.6625C83.6992 40.876 83.9393 41.067 84.1967 41.2326C84.6218 41.5341 84.7239 41.5621 85.1095 41.8768C85.3089 42.0383 85.5217 42.1827 85.7454 42.3084C86.1392 42.5441 86.2397 42.5951 86.5429 42.7813C86.935 43.0153 87.0981 43.1207 87.2612 43.2212C87.7392 43.5078 88.2408 43.7531 88.7605 43.9544C88.71 43.8855 88.655 43.82 88.5958 43.7583C88.4924 43.6448 88.3824 43.5375 88.2663 43.437C88.0562 43.2215 87.8685 42.9853 87.7061 42.7319C87.6298 42.601 87.5626 42.465 87.5051 42.3249C87.3896 42.09 87.2969 41.8444 87.2283 41.5917C87.0635 41.1337 87.0965 41.1617 86.9844 40.8586C86.8971 40.6213 86.8675 40.5768 86.4902 39.7497C86.2611 39.2423 86.276 39.267 86.1969 39.0907C86.0537 38.7525 85.8846 38.4258 85.6911 38.1137C85.452 37.7912 85.1667 37.5059 84.8442 37.2668C84.6372 37.081 84.4074 36.9221 84.1605 36.794C83.8705 36.6539 83.7074 36.6407 83.1488 36.4348C82.9511 36.3623 82.7913 36.2964 82.6925 36.2552C82.5275 36.1346 82.3747 35.9984 82.2361 35.8482C82.0829 35.6835 82.0137 35.5682 81.8291 35.3276C81.727 35.1942 81.5738 34.9981 81.3727 34.7724C81.3263 34.5254 81.2977 34.2754 81.2871 34.0244C81.2722 33.7245 81.2657 33.6537 81.2327 33.339C81.1849 32.9024 81.1783 32.8776 81.1338 32.4971C81.0679 31.9187 81.0712 31.9517 80.9987 31.5299C80.9328 31.1543 80.8702 30.8709 80.8027 30.6023C80.7203 30.2728 80.7104 30.2563 80.6231 29.9005C80.4995 29.3946 80.4715 29.309 80.3298 28.7274C80.2441 28.3682 80.1782 28.1013 80.0695 27.7503C79.9047 27.2017 79.8537 27.2017 79.6461 26.5443C79.562 26.2807 79.5093 26.0863 79.4022 25.6974C79.3676 25.5755 79.3297 25.4322 79.2869 25.2411C79.2655 25.1389 79.249 25.0549 79.2391 24.9956C79.3902 25.0041 79.5388 25.0375 79.679 25.0944C79.845 25.1781 80.0032 25.2762 80.1519 25.3877C80.4402 25.5722 80.4616 25.5525 80.6231 25.6645C80.8014 25.8 80.9605 25.959 81.0959 26.1374C81.4584 26.5641 81.4667 26.6316 81.7319 26.9348C81.9363 27.1724 82.1564 27.3959 82.391 27.6037C82.6009 27.7933 82.8227 27.9694 83.0549 28.1309C83.363 28.3435 83.5097 28.4687 83.714 28.5231C84.0233 28.5967 84.34 28.6349 84.658 28.6367C85.5823 28.6944 85.3896 28.6977 85.8476 28.701C86.3055 28.7219 86.7644 28.6949 87.2167 28.6203C87.5232 28.5626 87.5051 28.5478 88.0636 28.4044C88.2465 28.3583 88.2728 28.3221 88.7968 28.1968C89.413 28.0486 89.5646 28.0074 89.6931 27.9678C89.9435 27.8937 90.1462 27.8228 90.2796 27.7734C90.0766 27.7022 89.8698 27.6423 89.6601 27.5938C89.2812 27.5049 89.2318 27.5098 88.9599 27.4291C88.7319 27.3602 88.5111 27.2692 88.3009 27.1572C88.102 27.0404 87.9115 26.9099 87.7308 26.7667C87.2579 26.4125 87.2365 26.3598 86.907 26.1077C86.6994 25.9545 86.7422 25.999 86.1096 25.5706C85.579 25.2114 85.5296 25.1669 85.3105 25.0318C85.0541 24.8581 84.7809 24.7107 84.4949 24.5919C84.2744 24.5069 84.045 24.4467 83.8112 24.4123C83.5514 24.3791 83.2884 24.3791 83.0286 24.4123C82.7869 24.4231 82.5494 24.479 82.3283 24.5771C82.2707 24.6051 82.2509 24.6199 81.8555 24.8704L81.5457 25.0664C81.3689 25.1017 81.1889 25.1183 81.0086 25.1159C80.8279 25.1106 80.6481 25.0885 80.4715 25.0499C80.2588 25.0142 80.0509 24.954 79.852 24.8704C79.5833 24.7536 79.3399 24.5858 79.1353 24.3761C79.0167 24.2523 78.9127 24.1152 78.8256 23.9675C78.6991 23.7278 78.5954 23.4769 78.5158 23.2178C78.4089 22.9834 78.289 22.7551 78.1567 22.5341C77.9458 22.1403 77.9688 22.1403 77.6031 21.3939C77.4235 21.0265 77.2521 20.6772 77.0165 20.2406C76.9358 20.0874 76.7661 19.7727 76.5437 19.3921C76.2141 18.8369 76.1219 18.7331 75.4365 17.6655C75.2165 17.3045 74.9686 16.9613 74.6951 16.639C74.41 16.2716 74.3771 16.2073 73.9042 15.6505C73.3935 15.0441 73.438 15.0639 73.0887 14.6388C72.797 14.283 72.4725 13.9798 72.1001 13.5959C71.9354 13.4311 71.8052 13.2993 71.7096 13.2054C71.9216 13.1312 72.1504 13.1198 72.3687 13.1725C72.568 13.2268 72.6784 13.3224 72.9717 13.5481C73.2188 13.7376 73.4742 13.9122 73.7213 14.1017C74.2156 14.4757 74.4562 14.6635 74.6341 14.7855C75.0108 15.0742 75.4283 15.3052 75.8731 15.4709C76.3212 15.6208 76.6689 15.6356 77.3559 15.6505C77.8128 15.6699 78.2705 15.6478 78.7234 15.5845C79.1778 15.5149 79.625 15.4046 80.0596 15.255C80.3677 15.1529 80.254 15.171 81.3958 14.685C82.0219 14.4197 82.3761 14.278 82.9445 14.0012L83.335 13.8052C83.0059 13.8274 82.6756 13.8274 82.3465 13.8052C82.0226 13.7895 81.7007 13.746 81.3843 13.675C81.1075 13.6063 80.8356 13.5194 80.5704 13.4147C80.371 13.3405 80.3002 13.3076 79.7466 13.072C79.0694 12.7886 79.1469 12.8248 78.8503 12.6963C78.0924 12.3668 78.1583 12.3767 77.8387 12.2564C77.5027 12.125 77.1601 12.0111 76.8122 11.9154C76.6057 11.8445 76.3956 11.7846 76.1828 11.7358C75.9132 11.6714 75.6344 11.6547 75.359 11.6864C74.8055 11.7177 74.5352 11.7325 74.2667 11.833C74.0288 11.9069 73.8115 12.0356 73.6324 12.2086C73.5128 12.3495 73.3816 12.4801 73.2402 12.5991C73.1094 12.7045 72.9469 12.7625 72.7789 12.7639L71.4971 12.7787C71.3867 12.6848 71.2219 12.5447 71.0242 12.3717C70.5118 11.9203 70.2087 11.6188 69.7869 11.2184C68.9153 10.3815 68.4787 9.96297 68.0586 9.6384C67.7834 9.42421 67.8938 9.52801 67.0486 8.9217C66.0798 8.22477 66.004 8.13744 65.5015 7.79639C65.0633 7.50147 64.7321 7.30212 64.0665 6.91658C63.6925 6.69745 63.1175 6.36134 62.3398 5.95604C61.6313 5.58698 61.2771 5.4008 60.9542 5.27229C60.763 5.19485 60.4599 5.08281 60.0579 4.88016C59.8124 4.75824 59.6163 4.6462 59.4878 4.57041L59.6592 4.42213C60.0339 4.39512 60.4103 4.40616 60.7828 4.45508C60.9809 4.4782 61.177 4.5162 61.3694 4.56877C61.6244 4.6528 61.8747 4.7507 62.119 4.86204C62.2245 4.90323 62.4897 4.98231 63.0153 5.13883C63.498 5.28382 63.7419 5.35631 63.8622 5.38432C64.1735 5.45575 64.4895 5.50475 64.8079 5.53096C65.1554 5.55315 65.5042 5.54764 65.8508 5.51448C66.2692 5.5011 66.6848 5.44086 67.0898 5.33489C67.364 5.25463 67.6308 5.151 67.8872 5.02515C68.2365 4.86039 68.3815 4.75659 68.7506 4.55229C69.4475 4.17005 69.4656 4.20135 70.006 3.88502C70.469 3.60904 70.9142 3.30418 71.3389 2.97225C71.7755 2.64273 71.6981 2.66415 72.3819 2.12539C72.9289 1.69372 73.0129 1.65253 73.4248 1.30983C73.7774 1.01656 73.8482 0.937478 74.1909 0.659036C74.5336 0.380593 74.8401 0.149931 75.0378 0C74.4957 0.207596 74.0723 0.392126 73.784 0.520638C73.5607 0.610852 73.3296 0.680343 73.0936 0.728235C72.7999 0.824362 72.4945 0.879797 72.1858 0.892993C71.6338 0.911117 71.362 0.892993 70.7853 0.876518H69.4821C68.3387 0.876518 68.2975 0.876518 67.9828 0.876518C67.6681 0.876518 67.7554 0.876518 66.7438 0.843566C66.579 0.843566 66.0205 0.82709 65.3104 0.843566C65.0415 0.832488 64.7723 0.860233 64.5113 0.925945C64.2305 1.02772 63.9624 1.16151 63.7122 1.32466C63.4773 1.44511 63.254 1.58685 63.045 1.74809C62.8143 1.94251 62.7912 2.02489 62.4535 2.35441C62.1157 2.68392 62.2294 2.562 62.0103 2.79925C61.7104 3.12877 61.6709 3.23587 61.432 3.42699C61.2191 3.57003 60.9887 3.6852 60.7466 3.76968C60.5299 3.86602 60.307 3.94749 60.0793 4.01353C59.8241 4.0888 59.5619 4.13793 59.2967 4.16016C58.9524 4.1819 58.6069 4.15472 58.2702 4.07943C57.631 3.93939 57.4893 3.83394 56.6523 3.51431C56.5485 3.47477 56.2454 3.38085 55.6522 3.2095C55.0591 3.03816 54.5961 2.89976 54.4577 2.86186C53.9223 2.71523 53.6636 2.5999 53.3835 2.53234C52.8283 2.39559 52.5597 2.35276 52.128 2.27038C51.6058 2.16988 51.1214 2.07926 50.4656 1.99358C50.0653 1.94086 49.6715 1.88979 49.1624 1.86178C48.5412 1.83047 48.1458 1.814 47.5148 1.81894C46.976 1.81894 46.2643 1.85189 45.3466 1.9112L45.396 2.48127C46.0072 2.4928 46.4323 2.4236 46.7981 2.43349C47.6812 2.45656 47.9926 2.46644 48.1326 2.46479C48.5837 2.48337 49.0336 2.52517 49.4804 2.59001C50.0603 2.6658 50.1048 2.69381 51.067 2.85033C52.2121 3.03815 52.0967 3.0398 52.675 3.16667C52.8398 3.20127 53.4675 3.39074 54.0804 3.57362C54.6373 3.73838 54.662 3.72355 55.3688 3.94762C56.0757 4.1717 56.4101 4.31504 56.7858 4.4419C57.28 4.60666 57.5486 4.63302 57.8452 4.86533C58.0149 5.00496 58.168 5.16362 58.3016 5.33819C58.4355 5.51978 58.5587 5.70903 58.6706 5.90496C59.0001 6.45196 59.0479 6.46679 59.1253 6.67109C59.2026 6.88347 59.2519 7.10501 59.272 7.33013C59.3072 7.61095 59.3182 7.89428 59.3049 8.17699C59.3082 8.4332 59.2923 8.6893 59.2572 8.94312C59.2283 9.1203 59.1876 9.29534 59.1352 9.46705C59.0685 9.67432 59.0324 9.89024 59.0281 10.108C59.0281 10.2875 59.0281 10.4951 59.0397 10.7242C59.0441 11.1523 59.1061 11.5779 59.2242 11.9895C59.3638 12.4031 59.5672 12.7922 59.8272 13.1428C60.1287 13.5959 60.1897 13.5679 60.74 14.2681C61.2903 14.9683 61.3166 15.026 61.549 15.3226C61.5912 15.3765 61.6374 15.4272 61.6873 15.4742C61.9199 15.6773 62.1369 15.8976 62.3365 16.1332C62.5721 16.4116 62.7599 16.6275 63.0697 17.0048C63.564 17.6177 63.5145 17.4908 63.8836 18.0477C64.05 18.3027 64.197 18.5698 64.3235 18.8468C64.4882 19.2043 64.6085 19.5058 64.7486 19.8897C64.8392 20.1368 64.9133 20.3444 64.9595 20.4927C65.0083 20.1849 65.0408 19.8747 65.0567 19.5635C65.0764 19.2455 65.0764 19.1104 65.0979 18.7496C65.1193 18.3887 65.1259 18.2849 65.1539 17.8203C65.1638 17.6457 65.1901 17.2305 65.2033 16.7774C65.2231 16.1678 65.2428 16.0937 65.228 15.2369C65.228 14.5334 65.2181 14.6257 65.2033 14.2352C65.182 13.7432 65.127 13.2533 65.0385 12.7688C64.9821 12.3729 64.9001 11.9811 64.7931 11.5957C64.6874 11.1615 64.521 10.7444 64.2988 10.3567C64.0998 10.0457 63.8702 9.75539 63.6134 9.49012C63.3097 9.12914 62.9792 8.79152 62.6248 8.48014C62.2953 8.20005 61.9147 7.97268 61.1585 7.51795C60.4352 7.08463 60.2161 6.98743 59.8058 6.65461C59.4735 6.41099 59.2097 6.08584 59.0397 5.71054C58.9803 5.56911 58.9367 5.42159 58.9095 5.27064C59.0582 5.29307 59.2051 5.32554 59.3494 5.36785C59.8915 5.52272 60.2012 5.76986 60.5555 5.95439C61.1667 6.27237 60.7911 6.14057 61.7846 6.58212C62.0613 6.70404 62.699 7.08463 63.3086 7.38779C63.694 7.57008 64.06 7.79089 64.4009 8.04683C65.2247 8.60701 65.2626 8.67785 65.8673 9.10623C66.0815 9.2578 66.0568 9.24957 67.0568 10.0338C68.253 10.9746 68.2365 10.9466 68.5232 11.1871C69.1443 11.716 69.6155 12.1757 69.8923 12.4574C70.2103 12.7738 70.3866 12.9517 71.0819 13.6635L71.5762 14.1577C71.5622 14.6083 71.5732 15.0594 71.6091 15.5088C71.654 15.7627 71.6484 16.0231 71.5927 16.2749C71.5218 16.5286 71.3999 16.6917 71.0885 17.0575C70.3817 17.8813 70.3652 17.8137 70.2087 18.0675C69.955 18.4744 69.8792 18.8501 69.7852 19.3559C69.7018 19.7739 69.6687 20.2003 69.6864 20.6262C69.7302 21.0602 69.8068 21.4904 69.9154 21.9129C70.0132 22.4299 70.138 22.9413 70.2894 23.4452C70.5283 24.1454 70.6403 24.1553 70.7952 24.7633C70.8216 24.8671 70.8776 25.1801 70.9896 25.8062C71.0524 26.0963 71.0964 26.3902 71.1214 26.686C71.1323 26.9911 71.1157 27.2966 71.072 27.5988C71.0249 28.01 70.9539 28.4182 70.8595 28.8213C70.9682 28.6812 71.1033 28.5016 71.2516 28.2825C71.3307 28.1655 71.4823 27.9365 71.675 27.5988C71.8678 27.261 71.8991 27.1671 72.2121 26.5558C72.3687 26.2527 72.3258 26.3417 72.718 25.5937C73.059 24.9346 73.1645 24.732 73.2122 24.6496C73.4132 24.2525 73.5154 24.0482 73.6373 23.7698C73.7624 23.5015 73.8724 23.2265 73.9668 22.946C74.0443 22.7087 74.0344 22.6972 74.2123 22.0019C74.2974 21.7179 74.3678 21.4298 74.4232 21.1386C74.4723 20.8256 74.4779 20.5073 74.4397 20.1929C74.3861 19.8449 74.2875 19.5054 74.1464 19.1829C74.0121 18.8198 73.8541 18.4659 73.6736 18.1235C73.4888 17.769 73.2825 17.4262 73.0557 17.097C72.8218 16.7576 72.6718 16.5846 72.3703 16.1184C72.2649 15.9536 72.1825 15.8202 72.1265 15.7279C72.1149 15.4181 72.1051 15.1084 72.0935 14.7986C72.2583 15.0458 72.568 15.3852 72.9173 15.8333C73.4215 16.466 73.5072 16.5764 73.863 17.0641C74.1926 17.5188 74.2024 17.5172 74.7593 18.3591C74.9158 18.5947 74.8697 18.5486 75.4925 19.5239C76.0889 20.4993 76.0889 20.4993 76.2207 20.7366C76.3525 20.9738 76.4036 21.0232 76.8798 21.8899C77.2554 22.5753 77.2455 22.6082 77.5141 23.1602C77.8683 23.8835 77.7777 23.7352 78.0858 24.3662C78.4153 25.0549 78.5257 25.2246 78.6229 25.6035C78.6927 25.8728 78.7309 26.1493 78.7366 26.4273C78.7389 26.6904 78.7118 26.9529 78.6559 27.2099C78.6145 27.4036 78.5594 27.5941 78.4911 27.78C78.3976 28.0524 78.2661 28.3104 78.1006 28.5461C77.9063 28.7917 77.6751 29.0057 77.4152 29.1805C76.9341 29.5495 76.827 29.5199 76.5189 29.8164C76.3322 29.9983 76.1664 30.2006 76.0247 30.4194C75.8595 30.6666 75.7177 30.9286 75.6012 31.202C75.5802 31.2558 75.5626 31.3108 75.5485 31.3668C75.52 31.4854 75.5078 31.6074 75.5123 31.7293C75.5123 31.9402 75.5123 32.2054 75.504 32.5119C75.504 32.8628 75.4826 33.0062 75.4711 33.4411C75.4711 33.6059 75.4711 33.8827 75.4711 34.4297C75.4711 35.2996 75.4711 35.7477 75.4876 35.9768C75.4876 36.1415 75.4974 36.2783 75.504 36.5485C75.5031 36.7336 75.4905 36.9185 75.4661 37.1021C75.4474 37.3436 75.3883 37.5802 75.2915 37.8023C75.1679 38.0882 75.0265 38.3661 74.8681 38.6343C74.7692 38.8123 74.6308 39.0528 74.4611 39.3345C74.6736 39.1698 74.8763 39.005 75.0888 38.8403C75.2338 38.7019 75.3887 38.5783 75.537 38.4333C75.5881 38.3822 75.7858 38.1895 76.0741 37.8962C76.3624 37.6029 76.3657 37.593 76.6129 37.341C77.0544 36.8912 77.0396 36.9291 77.2472 36.7066C77.5372 36.3952 77.5108 36.3771 77.9062 35.9405C78.3214 35.4677 78.2654 35.4759 78.468 35.2469C78.5455 35.1612 78.5702 35.1299 78.9491 34.5384C79.0879 34.3497 79.2076 34.1477 79.3067 33.9354C79.4332 33.6593 79.5299 33.3704 79.595 33.0737C79.6745 32.8213 79.7362 32.5637 79.7795 32.3026C79.8212 32.039 79.8323 31.7714 79.8125 31.5052C79.8076 31.2144 79.7751 30.9248 79.7153 30.6402C79.6939 30.5447 79.6461 30.3865 79.5505 30.0702C79.422 29.6451 79.3577 29.4309 79.2885 29.2562C79.16 28.9267 79.1139 28.902 79.0447 28.6697C78.9893 28.4675 78.9567 28.2597 78.9475 28.0502C78.9467 27.7631 78.9659 27.4762 79.0052 27.1918C79.1451 27.3179 79.2573 27.4716 79.3347 27.6433C79.4566 27.8816 79.5389 28.1381 79.5785 28.4028C79.6675 28.7966 79.6626 28.8229 79.824 29.4194C79.9328 29.8263 80.002 30.1394 80.0349 30.2992C80.1354 30.7654 80.1898 31.1048 80.2804 31.6831C80.3825 32.3422 80.3628 32.3026 80.4583 32.9057C80.5753 33.6388 80.6017 33.6784 80.6544 34.1117C80.6808 34.3209 80.6643 34.227 80.7516 35.204C80.8093 35.8334 80.8241 35.9669 80.834 36.247C80.834 36.3112 80.834 36.5518 80.834 37.0279C80.834 37.7249 80.834 37.7973 80.801 37.9242C80.7401 38.1895 80.6231 38.3592 80.4106 38.6903C80.2681 38.9457 80.0863 39.177 79.8718 39.3757C79.707 39.5174 79.6477 39.5191 78.9607 39.87C78.501 40.1007 78.2143 40.2556 78.1451 40.2934C77.8511 40.4416 77.5681 40.6106 77.2983 40.7993C77.0346 40.9997 76.7942 41.229 76.5816 41.483C76.2679 41.863 76.0099 42.2857 75.8154 42.7385C75.7775 42.8241 75.6869 43.068 75.5057 43.5623C75.3673 43.9396 75.3063 44.073 75.2289 44.3284C75.1514 44.5838 75.1564 44.6068 75.0822 44.8342C75.0116 45.0575 74.924 45.275 74.8203 45.485C74.7972 45.5344 74.6852 45.719 74.4628 46.088C74.3161 46.3319 74.2832 46.3846 74.2189 46.495C74.0278 46.8245 74.036 46.8426 73.9405 46.9893C73.7546 47.2614 73.5532 47.5227 73.3375 47.7719C73.2452 47.8839 73.1117 48.0421 72.947 48.2282C73.2864 48.0454 73.5582 47.8855 73.7461 47.7719C74.1168 47.5461 74.2008 47.4901 74.4908 47.3352L75.1795 46.9728C75.4431 46.8381 75.6949 46.6816 75.9324 46.5049C76.3608 46.2132 76.3591 46.2379 76.6623 46.0287C76.7974 45.9348 76.9918 45.7816 77.3625 45.4735C77.641 45.2494 77.7826 45.1324 77.9655 44.9693C78.1105 44.8408 78.2193 44.737 78.4384 44.5294C78.6069 44.389 78.7649 44.2364 78.9112 44.073C79.0446 43.9472 79.1685 43.8117 79.282 43.6677C79.4386 43.4563 79.5833 43.2363 79.7153 43.0087C79.8385 42.813 79.9417 42.6055 80.0234 42.3892C80.1035 42.0644 80.1586 41.7339 80.1881 41.4006C80.2244 41.1577 80.2464 40.9129 80.254 40.6674C80.2289 40.4619 80.2234 40.2545 80.2376 40.048C80.2471 39.9106 80.2692 39.7744 80.3035 39.641C80.3775 39.3657 80.5107 39.1098 80.6939 38.8913C80.7665 39.1522 80.8156 39.4191 80.8406 39.6888C80.8636 40.0473 80.8581 40.407 80.8241 40.7647C80.7994 41.1469 80.7697 41.4369 80.7104 42.0201C80.6527 42.5721 80.6116 42.9197 80.5967 43.0466C80.5769 43.3311 80.5384 43.614 80.4814 43.8934C80.452 44.1164 80.4051 44.3368 80.3414 44.5525C80.2916 44.7256 80.2125 44.8889 80.1074 45.0352C79.971 45.2079 79.812 45.3615 79.6345 45.4916C79.1979 45.8508 79.3528 45.7585 78.8849 46.1506C78.1501 46.7553 78.2028 46.6268 77.9886 46.8509C77.6505 47.2107 77.4045 47.6471 77.2719 48.1228C77.2159 48.3473 77.1779 48.576 77.1582 48.8065C77.1302 49.0504 77.122 49.2234 77.1088 49.6534C77.0874 50.3932 77.0758 50.7622 77.0758 51.1692C77.0758 51.5069 77.0758 51.731 77.0923 52.049C77.1104 52.4329 77.1269 52.4428 77.1582 52.9288C77.2093 53.7098 77.1747 53.7526 77.2389 54.1019C77.2637 54.2271 77.318 54.4841 77.4037 54.7873C77.4416 54.9207 77.4762 55.0311 77.5009 55.1168C77.5256 55.0229 77.5421 54.952 77.5536 54.8927C77.5751 54.751 77.58 54.7066 77.6047 54.6028Z" fill="#40AF6E"/>
<path d="M25.5508 24.1257L56.0444 24.1191V26.4224H41.8784L41.8817 33.1808H64.7799V35.4858H50.7787V62.1702H48.3056L48.3106 35.4858H41.8817V53.1183H39.5718L39.5734 35.4874L34.3011 35.4891L34.3028 33.1825L39.5718 33.1808V26.4224L25.5508 26.4339V24.1257Z" fill="#40AF6E"/>
<path d="M56.6457 61.9856C58.5202 61.9856 60.0398 60.466 60.0398 58.5915C60.0398 56.7171 58.5202 55.1975 56.6457 55.1975C54.7713 55.1975 53.2517 56.7171 53.2517 58.5915C53.2517 60.466 54.7713 61.9856 56.6457 61.9856Z" stroke="#40AF6E" stroke-width="0.540195" stroke-miterlimit="10"/>
<path d="M55.8135 58.3776H55.9176C55.9285 58.4906 55.9503 58.5848 55.9831 58.6601C56.0158 58.7355 56.0559 58.7955 56.1035 58.8401C56.1521 58.8847 56.2071 58.9164 56.2686 58.9353C56.3311 58.9531 56.397 58.962 56.4664 58.962C56.5497 58.962 56.6206 58.9516 56.6791 58.9308C56.7385 58.91 56.7871 58.8812 56.8248 58.8446C56.8635 58.8069 56.8912 58.7623 56.9081 58.7107C56.9259 58.6582 56.9349 58.6007 56.9349 58.5382C56.9349 58.4609 56.922 58.3974 56.8962 58.3478C56.8704 58.2973 56.8342 58.2546 56.7876 58.2199C56.742 58.1842 56.687 58.1535 56.6225 58.1277C56.5581 58.102 56.4872 58.0752 56.4099 58.0474C56.3325 58.0197 56.2587 57.9904 56.1883 57.9597C56.1189 57.9289 56.0574 57.8908 56.0039 57.8452C55.9503 57.7996 55.9077 57.744 55.876 57.6786C55.8452 57.6122 55.8299 57.5299 55.8299 57.4317C55.8299 57.3395 55.8447 57.2552 55.8745 57.1789C55.9042 57.1026 55.9484 57.0376 56.0069 56.9841C56.0653 56.9295 56.1377 56.8874 56.224 56.8577C56.3112 56.8279 56.4124 56.8131 56.5274 56.8131C56.573 56.8131 56.6201 56.8155 56.6687 56.8205C56.7172 56.8245 56.7653 56.8309 56.8129 56.8398C56.8615 56.8487 56.9091 56.8597 56.9557 56.8725C57.0023 56.8844 57.0464 56.8978 57.088 56.9127L57.1059 57.4525H57.0018C56.9929 57.3455 56.973 57.2582 56.9423 57.1908C56.9116 57.1234 56.8739 57.0708 56.8293 57.0332C56.7856 56.9945 56.7366 56.9682 56.682 56.9543C56.6285 56.9395 56.5735 56.932 56.517 56.932C56.4416 56.932 56.3762 56.9414 56.3206 56.9603C56.2651 56.9781 56.219 57.0044 56.1823 57.0391C56.1457 57.0728 56.1179 57.1145 56.0991 57.164C56.0812 57.2126 56.0723 57.2676 56.0723 57.3291C56.0723 57.4025 56.0852 57.4635 56.111 57.512C56.1367 57.5606 56.1729 57.6028 56.2195 57.6384C56.2671 57.6731 56.3236 57.7044 56.3891 57.7321C56.4555 57.7589 56.5284 57.7872 56.6077 57.8169C56.6801 57.8447 56.7509 57.8744 56.8203 57.9061C56.8907 57.9369 56.9532 57.976 57.0077 58.0236C57.0633 58.0702 57.1079 58.1282 57.1416 58.1976C57.1753 58.266 57.1921 58.3513 57.1921 58.4534C57.1921 58.5526 57.1748 58.6408 57.1401 58.7181C57.1064 58.7955 57.0573 58.8604 56.9929 58.913C56.9294 58.9655 56.8516 59.0057 56.7594 59.0334C56.6672 59.0612 56.5631 59.0751 56.4471 59.0751C56.3965 59.0751 56.3439 59.0726 56.2894 59.0676C56.2359 59.0627 56.1823 59.0552 56.1288 59.0453C56.0763 59.0354 56.0247 59.024 55.9741 59.0111C55.9236 58.9982 55.8765 58.9834 55.8328 58.9665L55.8135 58.3776Z" fill="#40AF6E"/>
</svg>
