<svg width="60" height="59" viewBox="0 0 60 59" fill="none" xmlns="http://www.w3.org/2000/svg">
<path d="M60 16.5826L58.5735 13.722L56.6122 11.7553L53.7147 10.2356L45.4681 18.5045V0.893939C45.4681 0.402273 45.0669 0 44.5765 0H0.89153C0.401189 0 0 0.402273 0 0.893939V58.1061C0 58.5977 0.401189 59 0.89153 59H44.5765C45.0669 59 45.4681 58.5977 45.4681 58.1061V31.1538L60 16.5826ZM43.685 32.9864H44.5765V34.5508H42.0802L43.685 32.9864ZM22.8678 49.6136C22.6003 49.1667 22.2883 48.7644 21.9316 48.4068C21.575 48.0492 21.1738 47.7364 20.7281 47.4682L23.3135 42.0152L25.3195 43.0432L25.6315 44.697L27.2808 45.0098L28.3061 47.0212L22.8678 49.6136ZM20.3269 48.2727C20.6835 48.4962 20.9955 48.7644 21.3076 49.0326C21.6196 49.3455 21.8425 49.6583 22.0654 50.0159L18.7667 51.5803L20.3269 48.2727ZM56.3001 12.6939L57.5483 13.9455L27.4591 44.1159L26.3893 43.8924L26.1664 42.8197L56.3001 12.6939ZM45.2006 27.6227H47.7415L46.1813 29.1871H43.6404L45.2006 27.6227ZM45.8692 26.9076L47.4294 25.3432H49.9703L48.4101 26.9076H45.8692ZM48.0981 24.6727L49.6582 23.1083H52.1991L50.6389 24.6727H48.0981ZM50.3269 22.4379L51.8871 20.8735H54.4279L52.8678 22.4379H50.3269ZM52.5557 20.203L54.1159 18.6386H56.6568L55.0966 20.203H52.5557ZM54.7845 17.9682L56.3447 16.4038H58.8856L57.3254 17.9682H54.7845ZM41.7236 33.6121H39.1828L40.7429 32.0477H43.2838L41.7236 33.6121ZM28.529 45.5015H29.9108L29.0193 46.3955L28.529 45.5015ZM30.5795 44.7864H28.2169L28.1724 44.697L29.6434 43.222H32.1842L30.5795 44.7864ZM32.8083 42.5515H30.2675L31.8276 40.9871H34.3685L32.8083 42.5515ZM35.0371 40.3167H32.4963L34.0565 38.7523H36.5973L35.0371 40.3167ZM37.266 38.0818H34.7251L36.2853 36.5174H38.8262L37.266 38.0818ZM39.4948 35.847H36.9539L38.5141 34.2826H41.055L39.4948 35.847ZM43.9524 31.3773H41.4116L42.9718 29.8129H45.5126L43.9524 31.3773ZM58.5735 15.7333H57.0134L58.0386 14.7053L58.5735 15.7333ZM53.893 11.3083L55.5423 12.1576L25.6315 42.1492L23.9376 41.3L53.893 11.3083ZM0.89153 58.1061V0.893939H44.5765V19.3985L27.3254 36.6962C27.2808 36.6962 27.2363 36.6515 27.1917 36.6515L26.4785 37.5455L22.4666 41.5682L22.5111 41.6129L16.8945 53.4576L17.7415 53.0553C17.786 53.0553 17.786 53.0553 17.8306 53.0553H22.2883C22.4666 53.0553 22.6449 52.9212 22.6449 52.6977C22.6449 52.4742 22.5111 52.3402 22.2883 52.3402H19.1233L22.422 50.7758H26.7905C26.9688 50.7758 27.1471 50.6417 27.1471 50.4182C27.1471 50.1947 27.0134 50.0606 26.7905 50.0606H23.8484L27.1471 48.4962H31.2481C31.4264 48.4962 31.6048 48.3621 31.6048 48.1386C31.6048 47.9151 31.471 47.7811 31.2481 47.7811H28.529L28.7519 47.6917L28.7964 47.7364L30.312 46.2167H34.8143C34.9926 46.2167 35.1709 46.0826 35.1709 45.8591C35.1709 45.6356 35.0371 45.5015 34.8143 45.5015H30.9807L32.5409 43.9371H37.0431C37.2214 43.9371 37.3997 43.803 37.3997 43.5795C37.3997 43.3561 37.266 43.222 37.0431 43.222H33.2095L34.7697 41.6576H39.2719C39.4502 41.6576 39.6285 41.5235 39.6285 41.3C39.6285 41.0765 39.4948 40.9424 39.2719 40.9424H35.4383L36.9985 39.378H41.5007C41.6791 39.378 41.8573 39.2439 41.8573 39.0205C41.8573 38.797 41.7236 38.6629 41.5007 38.6629H37.6672L39.2273 37.0985H43.7296C43.9079 37.0985 44.0862 36.9644 44.0862 36.7409C44.0862 36.5174 43.9524 36.3833 43.7296 36.3833H39.896L41.4562 34.8189H44.6211V58.1061H0.89153ZM44.5765 32.2712H44.3091L44.5765 32.003V32.2712Z" fill="#34B86E"/>
<path d="M20.6389 27.1758C20.5944 26.1477 20.2377 25.3432 19.6137 24.8068C18.9896 24.2705 18.0981 24.0023 17.0728 24.0917C15.8692 24.1811 14.7548 24.628 13.7741 25.3879C12.838 26.103 12.2585 27.1758 12.1248 28.2932C11.9911 29.3659 12.3477 30.4386 13.0163 31.2879C13.7741 32.1818 14.7994 32.7182 15.9138 32.8076C17.0282 32.897 18.0535 32.4947 18.9004 31.7795C20.1486 30.6174 20.7281 29.053 20.6389 27.1758ZM18.4993 30.7515C17.9643 31.3773 17.162 31.7348 16.315 31.7795C16.2704 31.7795 16.2704 31.7795 16.2259 31.7795C15.3789 31.7795 14.5765 31.422 13.997 30.8409C13.4175 30.2152 13.1055 29.4106 13.1501 28.5614C13.1947 27.7121 13.5513 26.9523 14.1753 26.4159C14.844 25.8348 15.6018 25.4326 16.5825 25.1644C16.6716 25.1197 16.7608 25.1197 16.8499 25.1197H16.9391C17.7415 24.9856 18.3655 25.1197 18.8559 25.522C19.3908 25.9689 19.6582 26.6394 19.7028 27.578C19.6582 28.3826 19.4354 29.6341 18.4993 30.7515Z" fill="#34B86E"/>
<path d="M32.8083 25.0303C31.6939 23.8235 30.1783 23.2424 28.3061 23.2871C27.2808 23.3318 26.523 23.6447 25.9881 24.2705C25.364 24.9409 25.0966 26.0136 25.1857 27.3545C25.2303 28.1144 25.6761 29.3212 26.6568 30.4386C27.4146 31.2879 28.3952 31.7795 29.5097 31.8689C30.6241 31.9583 31.6493 31.5561 32.4963 30.7962C33.2987 30.0811 33.789 29.053 33.8336 27.9356C33.9227 26.8629 33.5215 25.8348 32.8083 25.0303ZM32.2734 29.5894C31.7831 30.2598 31.0253 30.7068 30.1783 30.8409C30.0446 30.8409 29.9108 30.8856 29.7771 30.8856C29.0639 30.8856 28.3507 30.6621 27.8157 30.1705C26.9688 29.4553 26.3001 28.1144 26.1664 26.8629C26.1218 26.0583 26.3001 25.4326 26.7013 24.9409C27.1471 24.4939 27.7712 24.2705 28.529 24.3152C29.5097 24.3598 30.4903 24.628 31.3819 25.2091C32.0951 25.6561 32.5854 26.3712 32.7637 27.1758C32.942 28.025 32.7637 28.8742 32.2734 29.5894Z" fill="#34B86E"/>
<path d="M21.5305 30.9303C20.8172 31.9583 20.416 33.2099 20.2823 34.7742C20.2377 35.6682 20.5052 36.4727 21.0847 37.0985C21.7088 37.7689 22.5111 38.1265 23.4473 38.1265C24.2942 38.1265 25.052 37.8136 25.6315 37.1879C26.2556 36.5174 26.5676 35.5788 26.523 34.5508C26.3447 33.5227 25.899 32.003 24.74 30.7068C24.2496 30.1705 23.7147 29.8576 23.1798 29.8576C23.1352 29.8576 23.1352 29.8576 23.0906 29.8576C22.5111 29.947 21.9762 30.3045 21.5305 30.9303ZM23.0906 30.9303C23.2689 30.9303 23.581 30.9303 23.893 31.2879C24.8737 32.4053 25.4086 33.6568 25.5423 34.9977C25.5869 35.3106 25.4532 35.6235 25.364 35.847V35.8917C25.2749 36.1598 24.8737 36.3833 24.6062 36.3386C24.2942 36.2939 24.0713 35.9364 24.0713 35.7576C24.0267 35.5788 24.0267 35.4447 24.0267 35.3106C24.0267 35.2659 24.0267 35.1765 24.0267 35.1318C23.9822 34.7295 23.8039 34.5508 23.4918 34.5508C23.3581 34.5508 23.0015 34.5955 23.0015 35.1318L23.2689 35.2212L22.5111 36.9644L22.0654 36.3833C22.0208 36.3386 21.9762 36.2939 21.9316 36.2492C21.7979 36.1152 21.6196 35.9364 21.5305 35.6682C21.263 34.8189 21.4859 34.0144 21.7088 33.3886C21.9316 32.7182 22.2437 32.0924 22.5557 31.5114C22.6449 31.0644 22.9569 30.9303 23.0906 30.9303Z" fill="#34B86E"/>
<path d="M37.9346 19.175C37.89 18.8174 37.8009 18.5045 37.7563 18.147C37.6226 17.4318 37.5334 16.672 37.3551 15.9568C36.3744 12.0235 34.2348 9.07349 30.9807 7.10682C26.5676 4.51439 21.7979 4.11212 16.7162 5.8553C12.7935 7.24091 10.0297 9.74394 8.42496 13.2303C6.32987 17.9235 6.41902 22.6614 8.737 27.3545C9.18276 28.2485 9.40565 29.1871 9.45022 30.3492C9.45022 30.8856 9.18276 31.2879 8.69242 31.3326C8.51412 31.3773 8.46954 31.3773 8.51412 31.6455C8.55869 31.8242 8.55869 32.003 8.60327 32.2265C8.69242 32.8523 8.737 33.5227 8.91531 34.1485C9.36107 36.0258 10.3418 37.0091 11.9465 37.2326C12.5706 37.322 13.1946 37.322 13.8633 37.322C14.0416 37.322 14.1753 37.322 14.3536 37.322C14.4428 37.322 14.5319 37.322 14.6657 37.322H14.7103C15.0223 37.322 15.6018 37.322 15.8247 37.903C16.0475 38.4394 16.2704 39.2439 15.7801 40.0485C15.6464 40.272 15.6464 40.4508 15.7355 40.6742C16.1367 41.6129 16.8499 42.3727 17.8752 42.9538C18.6776 43.4008 19.5245 43.7136 20.5052 43.8924L20.951 42.9091C20.5944 42.8644 20.2823 42.775 19.9703 42.6856C19.0788 42.4621 18.2764 42.0152 17.6077 41.4788C16.9837 40.9424 16.9391 40.3167 16.9837 39.7803C17.0282 39.2439 17.0728 38.4841 16.8945 37.8583C16.6716 36.7856 15.8692 36.2045 14.6657 36.2492C14.4428 36.2492 14.2645 36.2492 14.0416 36.2939C13.6404 36.3386 13.2392 36.3386 12.7935 36.3386C11.4562 36.3386 10.5646 35.7576 10.1189 34.5061C9.94056 34.0144 9.80684 33.478 9.71768 32.9417C9.67311 32.5841 9.85141 32.1371 10.0297 31.9136C10.4309 31.422 10.5646 30.9303 10.5201 30.3045L10.4755 29.947C10.3863 29.053 10.3418 28.1144 10.3863 27.2205C10.4755 25.6561 11.3224 24.3152 12.7935 23.3765C13.0609 23.1977 13.2392 23.0189 13.2392 22.8402C13.2392 22.6614 13.1055 22.4826 12.838 22.2591C12.526 21.9909 12.3477 21.5886 12.2585 21.2758C12.0802 20.5159 11.7236 19.9348 11.1887 19.4432C10.9212 19.2197 10.6092 19.175 10.4309 19.3985C10.1189 19.7114 10.3863 20.0689 10.4755 20.1583C11.5453 21.3205 11.6345 22.3932 10.7429 23.7341L10.6538 23.8682C10.5201 24.047 10.3863 24.2705 10.208 24.4492C10.1634 24.4939 9.76226 24.8962 9.31649 24.8068C9.00446 24.7174 8.64785 24.4045 8.60327 24.0917C8.42496 23.3318 8.29123 22.572 8.11293 21.8121L7.9792 21.0076C7.84547 17.8788 8.46954 15.1523 9.85141 12.7833C11.7236 9.56515 14.5765 7.4197 18.4101 6.39167C22.3328 5.31894 26.0773 5.72121 29.5542 7.50909C33.1204 9.34167 35.4829 12.3811 36.4636 16.5379C36.9539 18.5939 37.0431 20.4712 36.7756 22.3038C36.7311 22.572 36.5082 23.0636 36.107 23.1977C35.7058 23.3318 35.3046 23.0636 35.0817 22.8402C34.636 22.3932 34.3685 22.0356 34.1456 21.678C33.6107 20.7841 33.6553 19.8455 34.2793 18.9515L34.4131 18.7727C34.5914 18.5492 34.636 18.1917 34.3685 17.9682C34.0119 17.7 33.6999 18.0129 33.6107 18.147C33.1649 18.6833 32.8975 19.3091 32.8083 20.0689C32.7637 20.2924 32.6746 20.8288 32.318 21.1864C32.1397 21.4098 32.0505 21.6333 32.0505 21.7674C32.0951 21.9909 32.318 22.125 32.4517 22.1697C33.8782 22.7955 34.8588 23.8235 35.3492 25.2538C35.4829 25.6114 35.5275 25.9689 35.5721 26.4159C35.5721 26.6394 35.6166 26.8629 35.6166 27.0417L37.0431 25.5667C37.7563 23.5553 38.0684 21.4098 37.9346 19.175Z" fill="#34B86E"/>
</svg>
