<svg width="54" height="62" viewBox="0 0 54 62" fill="none" xmlns="http://www.w3.org/2000/svg">
<path d="M51.9453 35.4805C51.6268 35.4805 51.3144 35.3509 51.0892 35.1255C50.8639 34.9004 50.7344 34.588 50.7344 34.2695C50.7344 33.9511 50.8638 33.6386 51.0892 33.4134C51.3145 33.1882 51.6268 33.0586 51.9453 33.0586C52.2638 33.0586 52.5762 33.188 52.8013 33.4134C53.0266 33.6386 53.1562 33.9511 53.1562 34.2695C53.1562 34.588 53.0267 34.9004 52.8013 35.1255C52.5762 35.3509 52.2638 35.4805 51.9453 35.4805Z" fill="#34B86E"/>
<path d="M51.9453 30.0312C52.614 30.0312 53.1562 29.489 53.1562 28.8203V7.75C53.1562 7.08132 52.614 6.53906 51.9453 6.53906H46.6172V1.21094C46.6172 0.542258 46.0749 0 45.4062 0H2.05469C1.38601 0 0.84375 0.542258 0.84375 1.21094V54.25C0.84375 54.9187 1.38601 55.4609 2.05469 55.4609H7.38281V60.7891C7.38281 61.4577 7.92507 62 8.59375 62H51.9453C52.614 62 53.1562 61.4577 53.1562 60.7891V39.7188C53.1562 39.0501 52.614 38.5078 51.9453 38.5078C51.2766 38.5078 50.7344 39.0501 50.7344 39.7188V59.5781H9.80469V8.96094H50.7344V28.8203C50.7344 29.489 51.2766 30.0312 51.9453 30.0312ZM8.59375 6.53906C7.92507 6.53906 7.38281 7.08132 7.38281 7.75V53.0391H3.26562V2.42188H44.1953V6.53906H8.59375Z" fill="#34B86E"/>
<path d="M42.6684 34.0647C42.666 34.0598 42.6638 34.055 42.6614 34.0503C40.0313 28.6629 41.416 22.3085 41.4299 22.2465C41.5167 21.865 41.4138 21.465 41.1537 21.1727C40.8936 20.8802 40.507 20.7327 40.1191 20.7738C39.955 20.7915 36.9502 21.1555 34.5445 24.0501C33.3991 20.6037 30.4249 16.6587 26.2079 15.0084C25.7822 14.842 25.2992 14.9291 24.9587 15.234C24.6183 15.5389 24.4785 16.0095 24.5974 16.4507C25.4587 19.651 23.3294 23.5944 20.8638 28.1606C19.7608 30.2037 18.6201 32.3163 17.652 34.5498C16.9301 36.248 16.5641 38.051 16.5641 39.9084C16.5641 47.4658 22.7124 53.6142 30.2698 53.6142C37.8271 53.6142 43.9754 47.4659 43.9754 39.9084C43.9752 37.8681 43.5355 35.9019 42.6684 34.0647ZM34.0383 49.631C31.9605 51.7091 28.5788 51.7091 26.5007 49.631C24.6528 47.7833 24.4125 44.8974 25.9288 42.7691L30.2695 36.6779L34.6101 42.7693C36.1266 44.8976 35.8861 47.7834 34.0383 49.631ZM37.5588 48.5143C38.411 46.1807 38.1104 43.5081 36.5825 41.3637L31.2557 33.8885C31.0285 33.5696 30.6611 33.3804 30.2695 33.3804C29.8779 33.3804 29.5105 33.5696 29.2833 33.8885L23.9566 41.3638C22.4287 43.5081 22.1279 46.1807 22.9803 48.5143C20.5384 46.4429 18.9858 43.3538 18.9858 39.9084C18.9858 38.3784 19.2868 36.8942 19.8773 35.5051C20.8005 33.3753 21.916 31.3094 22.9947 29.3115C25.096 25.4199 27.1031 21.7031 27.2063 18.2385C31.1926 20.8483 33.0606 25.8223 32.5715 27.5771C32.3972 28.2027 32.7474 28.8545 33.3654 29.0543C33.9836 29.2541 34.649 28.9308 34.874 28.3216C35.8671 25.6324 37.5215 24.3383 38.7587 23.7229C38.4893 26.2845 38.4193 30.8756 40.4815 35.1054C41.1926 36.615 41.5533 38.231 41.5533 39.9084C41.5533 43.3538 40.0005 46.4429 37.5588 48.5143Z" fill="#34B86E"/>
</svg>
